<svg xmlns="http://www.w3.org/2000/svg" viewBox="262.5 172.5 664.0 924.2" role="img"><title>معمار</title><path fill="#C08649" fill-rule="evenodd" d="M514.6 923.7C513.5 923.6 512.2 923.5 511.8 923.4C511.4 923.3 509.8 923 508.2 922.8C506.6 922.6 504.5 922.4 503.7 922.2C502.8 922 501.4 921.9 500.6 922C499.5 922 498.7 921.9 497.8 921.6C497 921.4 496 921.2 495.5 921.1C495 921 494.1 920.7 493.4 920.5C492.8 920.3 491 920 489.5 919.7C488 919.5 486.2 919.2 485.4 918.9C484.7 918.7 483.8 918.5 483.5 918.4C483.1 918.4 482.5 918.2 482.1 918C481.7 917.8 480.9 917.6 480.2 917.5C479.6 917.4 478.2 917.2 477.2 917C476.1 916.8 474.7 916.6 473.9 916.4C473.2 916.3 472.2 916.1 471.8 916C470.6 915.5 466.8 914.7 465.6 914.6C464.8 914.5 464.2 914.3 463.8 914.1C463.4 913.9 462.7 913.6 462.3 913.6C461.9 913.5 461.1 913.3 460.5 913C458.3 912.1 457.1 911.7 454.8 911.5C453.8 911.4 453.1 911.2 452.2 910.9C451.5 910.6 450.4 910.2 449.7 910C449 909.8 448.1 909.5 447.8 909.3C447.4 909.1 446.7 908.8 446.2 908.7C445.5 908.5 444.8 908.2 441.9 907.1C441.4 906.9 440.6 906.6 440.2 906.5C439.4 906.3 437.3 905.4 436 904.8C435.7 904.7 435.3 904.5 435.2 904.5C434.9 904.5 431.8 903.4 431 902.9C430.6 902.7 429.6 902.3 428.7 902C427.9 901.7 426.9 901.3 426.6 901C426.3 900.8 425.6 900.3 425.1 900C424.6 899.7 423.9 899.2 423.7 899C423.4 898.8 423.1 898.7 423 898.7C423 898.7 422.6 898.4 422.1 898.1C421.7 897.8 421.4 897.5 421.3 897.5C420.9 897.5 418.6 896.3 417.9 895.8C417.5 895.4 417.2 895.2 417.1 895.2C417 895.2 416.5 894.8 416 894.4C414.4 893.1 412.9 891.9 412.4 891.7C411.5 891.2 410.7 890.4 410.2 889.6C409.8 888.7 409.2 888 408.9 888C408.7 888 408.4 887.7 406.9 886.1C406.2 885.4 405.7 884.6 405 883.2C403.3 879.7 402.8 878.5 402.7 876.4C402.6 875.4 402.6 874.3 402.6 873.9C402.8 872.4 403.6 869.5 403.9 869.1C404.1 868.8 404.6 867.9 405 867.1C405.6 865.9 406.1 865.3 407.3 864C408.2 863.1 409 862.3 409.1 862.3C409.3 862.3 412.6 859.2 412.7 858.9C412.8 858.6 414.5 857.5 414.8 857.5C415.1 857.5 415.5 857.3 416.7 856.7C416.9 856.5 417.5 856.1 417.9 855.6C418.4 855.1 419 854.8 419.4 854.6C420.9 854.3 421.5 853.9 422.5 853.1C422.7 852.9 423.3 852.6 423.7 852.4C424.2 852.3 425.2 851.8 426.1 851.4C426.9 851 428 850.5 428.4 850.4C428.9 850.3 429.5 850 429.9 849.9C430.2 849.7 430.6 849.5 430.8 849.4C431.1 849.3 431.4 849.2 431.6 849C431.8 848.8 432.9 848.4 434 848.1C435 847.7 436.3 847.3 436.8 847.1C437.3 847 438.2 846.7 438.8 846.5C439.4 846.3 440.1 846.1 440.3 846C440.8 845.7 443.2 845.5 443.7 845.7C444 845.8 444.2 845.9 444.1 846C443.9 846.5 443.3 847.3 443.1 847.3C442.9 847.3 441.3 848.4 440.1 849.3C439.7 849.6 439 850 438.5 850.3C438.1 850.5 437.6 850.8 437.5 850.9C437.4 851.1 436.9 851.4 436.4 851.7C435.2 852.3 434.1 853.4 433.5 854.5C433 855.5 432.1 856.2 431.1 856.7C430 857.1 428.9 858.4 428.1 859.9C427.7 860.6 427 861.8 426.5 862.5C426 863.2 425.5 864 425.4 864.2C425.4 864.4 425.2 864.9 424.9 865.2C424.7 865.5 424.3 866.3 424.1 867L423.6 868.2L423.6 872.5L423.6 876.8L424.1 878.2C424.4 879 424.9 879.9 425.2 880.3C425.4 880.6 425.7 880.9 425.7 881C425.7 881.2 426 881.7 426.9 882.8C427.7 883.7 428.3 884.7 428.5 885.4C428.9 886.8 430.4 888.5 431.1 888.5C431.2 888.5 431.4 888.7 431.5 888.9C431.6 889.1 432.2 889.6 432.8 890C433.5 890.4 434.3 891.1 434.6 891.5C435.2 892.3 436.7 893.5 437.1 893.5C437.2 893.5 437.6 893.7 438.1 894C438.5 894.3 439.2 894.7 439.5 894.9C439.8 895.1 440.6 895.6 441.2 895.9C441.8 896.3 442.4 896.7 442.6 896.9C442.9 897.3 446.7 899.3 447 899.3C447.3 899.3 450.1 900.7 450.4 900.9C450.8 901.3 452.6 902.1 454 902.6C454.7 902.8 456.2 903.5 457.4 904.1C458.6 904.8 459.9 905.3 460.3 905.4C460.7 905.5 461.5 905.7 462 905.9C462.5 906.1 464 906.6 465.4 907C466.8 907.4 468.6 907.9 469.3 908.1C470.1 908.3 470.9 908.5 471.1 908.5C471.3 908.5 471.7 908.7 472.1 908.8C472.5 909 473.1 909.3 473.5 909.4C474.2 909.5 475.3 909.8 479.1 911C480.8 911.5 483.1 912 486 912.4C487.6 912.7 488.4 912.8 490.3 913.3C490.7 913.5 491.9 913.8 493 914C494.1 914.3 495.3 914.6 495.8 914.7C496.5 915 497.3 915.1 500.9 915.5C501.7 915.6 503 915.8 503.8 916C506.1 916.5 509.1 917 510.3 917C510.9 917 511.7 917.1 511.9 917.2C512.1 917.2 513.1 917.4 514.1 917.6C515.1 917.7 516.3 918 516.7 918.2C517.7 918.7 519 919.9 520.1 921.6C520.7 922.6 520.8 922.8 520.7 923.2C520.4 924 518.7 924.2 514.6 923.7ZM746.9 916.2C746.8 916.1 746.7 915.9 746.7 915.8C746.7 915.5 747.7 913.6 748 913.2C748.2 913.1 748.5 912.6 748.6 912.2C749 911.4 749.5 910.8 750.2 910.4C751 910 752 909.5 752.3 909.5C752.5 909.5 753.7 909.1 755 908.6C756.3 908.2 757.9 907.7 758.4 907.6C758.9 907.5 759.7 907.2 760.1 907.1C760.6 907 761.4 906.7 762 906.6C762.9 906.3 764.6 905.6 765.3 905.2C765.8 904.9 766.4 904.6 767.2 904.5C767.7 904.4 768.3 904.2 768.5 904C769 903.7 771 902.9 772.3 902.6C772.8 902.4 773.4 902.2 773.6 902C774.7 901.3 776.1 900.5 776.6 900.4C776.8 900.3 777.6 899.9 778.3 899.5C779.7 898.6 780.9 898.1 782.6 897.7C783.1 897.6 783.8 897.3 784.1 897.1C784.4 896.8 784.7 896.7 784.8 896.7C785.3 896.7 786.1 896.1 787.2 894.9C787.9 894.3 788.6 893.7 788.8 893.6C789 893.5 789.5 893.3 789.9 893C790.3 892.8 790.7 892.5 790.9 892.4C791.1 892.4 791.6 892 792.1 891.6C792.5 891.2 793 890.8 793.1 890.8C793.2 890.8 794 890 795 889C796 888.1 797.1 887 797.6 886.8C798.2 886.4 798.5 886.1 798.8 885.3C799.1 884.7 799.3 884.1 799.4 883.8C799.4 883.6 799.9 882.9 800.4 882.4C800.9 881.8 801.5 881.1 801.7 880.8C804.2 876.1 804.7 874.4 804.4 870.6C804.4 869.5 804.3 868.2 804.2 867.6C804.2 866.7 803.4 864.8 802.7 864.3C802.6 864.2 802.5 864.1 802.5 864C802.5 863.8 801.8 862.9 800.8 861.7C800 860.8 799.7 860.3 799.5 859.9C798.6 858.5 797.9 857.6 797.2 857.3C796.4 856.9 795.5 856.3 795.5 856.1C795.5 855.8 792.1 852.6 791.2 852C790.7 851.7 789.8 851 789.2 850.4C788 849.3 787.3 848.7 786.3 847.8C785.5 847.1 785.5 846.6 786.2 846.3C786.4 846.1 786.8 846 787 846C787.4 846 789.8 846.8 790.2 847.1C790.5 847.3 791.2 847.4 793.4 847.8C794.1 847.9 795.3 848.3 796.9 849.1C797.4 849.3 797.9 849.5 798 849.5C798.1 849.5 798.7 849.8 799.4 850.1C800 850.4 800.7 850.7 800.9 850.7C801.4 850.7 804.4 852.2 805.6 853.1C805.8 853.3 806.1 853.5 806.2 853.5C806.7 853.5 809 854.8 809.8 855.5C810.5 856.2 811.1 856.6 812.8 857.5C813.9 858.1 816.1 859.7 818 861.5C819.7 863.1 821.4 864.8 821.7 865.2C821.9 865.4 822.2 865.9 822.5 866.3C823.4 867.6 825.1 871 825.3 872C825.4 872.5 825.5 873.2 825.5 873.6C825.5 874 825.6 874.9 825.7 875.5C825.9 876.9 825.7 877.8 824.7 879.4C824.3 880 823.8 881 823.7 881.6C823.5 882.1 823.2 882.7 823.1 882.9C822.9 883 822.7 883.3 822.5 883.7C822 884.9 821.2 885.8 819.7 887.3C818.9 888.1 818.2 888.9 818.2 889C818.2 889.5 817.1 890.5 816 891C814.7 891.7 814.3 892 813 893.2C811.4 894.7 808.6 896.5 807.9 896.5C807.6 896.5 807 896.8 805.6 897.7C805.1 898 804.5 898.3 804.2 898.4C803.9 898.6 803.2 899 802.5 899.5C801.9 899.9 801.1 900.4 800.6 900.6C800.2 900.7 799.7 901 799.6 901.2C799.4 901.4 799.2 901.5 799 901.5C798.9 901.5 798.4 901.7 797.9 901.9C797.3 902.1 796.4 902.5 795.9 902.7C793.4 903.7 792.7 904 792 904.3C791.7 904.5 791.2 904.7 791.1 904.7C790.9 904.7 789.9 905.1 788.8 905.6C787.7 906.1 786.3 906.6 785.7 906.7C785.1 906.8 784.3 907 784 907.2C783.6 907.4 783.2 907.5 783 907.5C782.8 907.5 782 907.8 781.3 908.1C780.6 908.4 780 908.7 779.9 908.7C779.8 908.7 779.4 908.8 779.1 909C778.7 909.2 777.9 909.4 777.2 909.6C775.6 909.9 773.3 910.6 769.9 911.7C768.4 912.1 767.1 912.5 766.8 912.5C766.3 912.5 765.3 912.8 763.2 913.5C761.8 914 760 914.3 756.5 914.6C755.8 914.6 754.6 914.9 753.8 915.1C753.1 915.3 752.1 915.5 751.8 915.6C751.4 915.6 750.5 915.9 749.8 916.1C748.3 916.6 747.3 916.6 746.9 916.2ZM610.1 772.5C608.4 772.4 605.4 771.8 602.2 771.1C601.2 770.9 600.1 770.6 599.7 770.6C599.3 770.5 598.6 770.4 598.2 770.2C597.7 770.1 596.8 769.9 596.1 769.8C594.5 769.5 594 769.3 593.7 768.9C593.6 768.8 593.1 768.6 592.6 768.4C591.5 768.1 589.8 767.2 589.6 766.9C589.4 766.7 588.1 765.9 587.1 765.5C586.8 765.3 586.5 765.1 586.5 765C586.5 764.9 586 764.6 585.4 764.3C584 763.5 583.2 762.9 581.4 761.1C580.6 760.3 579.2 759.1 578.2 758.4C576.8 757.2 576.5 756.9 576 755.9C575.7 755.3 575 754.3 574.5 753.8C573.9 753.2 573.3 752.6 573.1 752.3C572.5 751.7 570.5 748.7 570.5 748.4C570.5 748.3 570.3 747.8 570 747.3C569.8 746.8 569.5 746 569.4 745.6C569.3 745.1 569.2 744.4 569.1 744.1C568.9 743.7 568.7 742.8 568.6 742.1C568.5 741.4 568.2 740.3 567.9 739.8C566.7 736.7 566.1 726.6 566.8 722C567.1 720.4 567.7 717.8 567.9 717.6C568.1 717.3 569 714.7 569.4 713.4C569.7 712.1 570.2 711.2 571.4 709.6C571.9 709 572.4 708.3 572.4 708C572.5 707.8 572.9 707.1 573.4 706.5C573.9 705.9 574.4 705.2 574.5 705C574.8 704.5 576.5 702.3 577.2 701.7C577.5 701.3 578.4 700.3 578.7 699.9C578.7 699.8 579.4 699.2 580.1 698.6C580.8 698 581.6 697.3 581.8 697.1C581.9 696.9 582.8 696.2 583.6 695.5C584.4 694.9 585.4 694 585.8 693.6C586.7 692.7 586.7 692.7 587.2 692.3C588 691.7 589.7 690.9 590.8 690.6C591.3 690.5 592.1 690.2 592.4 690C592.8 689.9 593.4 689.5 593.8 689.3C594.2 689.1 595.1 688.7 595.7 688.4C596.3 688.1 597.4 687.6 598.1 687.4C598.8 687.2 599.7 686.9 600 686.8C600.2 686.6 600.8 686.5 601.2 686.5C601.6 686.5 602.8 686.4 603.9 686.2C607.3 685.6 608.6 685.5 611.7 685.5C616.2 685.5 622.7 686.3 624 686.9C624.3 687.1 624.9 687.3 625.5 687.4C626.3 687.6 627.5 688.1 629.8 689.2C630.1 689.4 630.5 689.5 630.7 689.5C630.8 689.5 631.3 689.7 631.8 690C632.3 690.2 633.1 690.5 633.4 690.6C634.8 690.8 636.4 691.7 637.4 692.7C637.9 693.2 638.7 693.9 639 694.1C639.4 694.3 640 694.8 640.4 695.2C640.8 695.6 641.3 696.1 641.5 696.2C642.7 697.1 645.3 699.5 646.9 701.4C647.1 701.7 647.7 702.5 648.2 703.2C648.6 703.9 649.1 704.5 649.2 704.5C649.2 704.5 649.4 704.7 649.5 705C649.6 705.2 650.1 705.9 650.6 706.6C651.1 707.2 651.5 707.9 651.5 708C651.5 708.2 651.6 708.3 651.6 708.4C651.8 708.6 653.1 710.9 654 712.8C654.3 713.3 654.5 713.9 654.5 714.1C654.5 714.4 654.7 714.9 655.5 717.2C656 718.4 656.4 720.5 656.6 722.2C656.6 722.8 656.8 723.9 657 724.8C657.6 727.3 657.4 733.3 656.6 736.1C655.8 738.6 655.5 739.9 655.5 740.3C655.5 740.6 655.3 741.1 655.1 741.4C654.8 742.1 654.2 743.5 653.6 745.2C653.5 745.8 653 746.7 652.7 747.3C652.3 747.9 651.6 749.2 651.2 750.1C650.7 751 650.2 751.8 650 752C649.7 752.1 649.2 752.8 648.6 753.8C648.2 754.5 647.3 755.5 647.1 755.5C646.9 755.5 646.5 756 646.1 756.6C645.3 757.8 644.4 758.9 643.4 759.7C643.1 759.9 642.1 760.9 641.1 761.8C640.2 762.6 639.2 763.4 639 763.5C638.6 763.7 636.7 764.9 636.4 765.3C636.2 765.4 636.1 765.5 636 765.5C635.9 765.5 635.7 765.6 635.5 765.7C634.9 766.3 631.7 767.9 630.5 768.3C630.1 768.4 629.4 768.7 628.9 768.9C628.5 769.1 627.5 769.4 626.8 769.6C625.7 769.8 623.9 770.3 621.8 771C621.3 771.2 620.4 771.4 619.8 771.6C619.1 771.7 618.3 771.9 617.9 772.1C617.5 772.2 616.2 772.3 614.8 772.4C613.5 772.5 612.3 772.5 612.1 772.6C611.9 772.6 611 772.6 610.1 772.5ZM728.2 658.1C727.9 657.8 727.3 657 726.2 655.5C726.1 655.3 725.4 654.1 724.8 652.8C724.2 651.6 723.4 650.3 723.2 649.9C722.9 649.5 722.7 649.1 722.7 649C722.7 648.9 722.4 648.6 722.1 648.1C721.8 647.7 721.5 647.3 721.5 647.1C721.5 646.8 721.4 646.6 720.6 645.1C720.4 644.7 719.8 644 719.3 643.4C718.2 642.2 717.5 641.2 717.5 641C717.5 640.9 717.3 640.6 717 640.2C716.7 639.9 716.1 639.1 715.8 638.5C715.4 638 715.1 637.5 715 637.5C714.9 637.5 714.6 637.1 714.3 636.6C714.1 636.1 713.3 635.2 712.8 634.6C712.2 634 711.6 633.4 711.5 633.1C711.3 632.8 710.8 632.3 710.3 631.8C709.9 631.4 709.5 631 709.5 630.9C709.5 630.7 707.6 628.8 705.9 627.4C705.2 626.8 704.5 626.1 704.3 625.8C704.1 625.5 703.6 624.9 703.1 624.4C702.5 624 701.7 623.2 701.2 622.7C700.7 622.2 700.2 621.8 700.1 621.8C700 621.8 699.4 621.3 698.7 620.6C697.4 619.4 695.2 617.6 694.9 617.5C694.8 617.5 694.2 617 693.6 616.4C689.1 612.6 689.6 613 687.8 612C685.9 611 684.1 609.8 682.5 608.5C681.8 608 681.1 607.5 681 607.5C680.9 607.5 680.4 607.3 680 607C679.6 606.7 679.1 606.5 679 606.5C678.8 606.5 677.1 605.9 675.6 605.2C675.3 605.1 674.6 604.7 674.1 604.3C673.1 603.5 670.4 602.1 668.5 601.4C667.9 601.2 666.8 600.8 666.1 600.5C665.4 600.3 664.6 600 664.3 599.8C662.7 598.8 662.2 598.5 662.1 598.5C662 598.5 660.1 597.6 658.6 596.9C657.9 596.6 656.6 596.1 655.7 595.9C654.7 595.7 653.7 595.3 653.3 595.1C652.5 594.5 651.3 594 650.1 593.8C649.6 593.7 648.5 593.5 647.8 593.4C647.1 593.3 646.4 593.1 646.2 593.1C645.9 593.1 644.7 592.8 643.4 592.4C642.1 592.1 640.1 591.7 639 591.6C637.8 591.4 636.5 591.2 636.1 591C635.7 590.8 634.7 590.6 634 590.4C633 590.2 632.4 590 631.9 589.7C631.6 589.4 631.2 589.2 631.1 589.2C630.8 589.2 629.7 588.6 629.3 588.2C628.8 587.8 628.5 587.1 628.7 586.8C628.8 586.6 629 586.6 630 587C631.4 587.5 633.6 587.6 634.9 587.1C635.4 587 636.3 586.8 636.9 586.7C638.4 586.5 652.2 586.5 654.7 586.7C657.5 586.9 659 586.7 660.2 585.8C660.7 585.5 661.1 585.2 661.2 585.2C661.3 585.2 662.1 585.7 662.2 585.9C662.6 586.6 666.9 587.4 668.8 587.1C670 587 679.3 586.7 687.1 586.6L693.1 586.6L694.6 585.9L696.2 585.3L696.7 585.6C697 585.8 697.4 586 697.5 586.1C698 586.5 700.1 586.9 701.9 586.8C702.8 586.8 705.1 586.9 707 587C710.1 587.2 710.7 587.2 712.7 586.9C714.4 586.7 716.5 586.6 722 586.5L729.1 586.5L729.7 587.2C730.5 588.1 730.9 589.8 730.8 592C730.8 592.9 730.8 594.3 730.8 595.2C730.8 596.2 730.8 609 730.9 623.8C731 638.6 731 651.8 731 653.2C731.1 655.1 731 655.7 730.8 656.2C730.6 656.6 730.5 657 730.5 657.2C730.5 657.3 730.3 657.7 730 658C729.4 658.6 728.7 658.7 728.2 658.1ZM695.5 584.2C694.8 583.7 694 582.8 693.6 582C693.4 581.6 692.5 580.2 691.7 579C691.6 578.8 691.2 578.3 691 578.1C690.7 577.8 690.5 577.4 690.4 577.2C690.3 576.8 689.1 574.9 688.8 574.8C688.6 574.6 687.7 573.2 687.7 573C687.7 572.9 687.3 572.3 686.8 571.6C686.4 570.9 685.8 570 685.6 569.5C685.4 569.1 685.1 568.6 684.9 568.4C684.6 568.1 684.1 567.3 683.2 566C681.8 564 680.9 563.2 679.7 562.6C679.2 562.3 678.9 562.3 678 562.5C676.5 562.7 675.8 563.4 674 566C673.7 566.5 673.2 567.1 672.9 567.4C672.6 567.7 672.2 568.3 672 568.7C671.8 569.1 671.3 569.6 671.1 570C670.6 570.5 669.5 572.6 669.5 572.9C669.5 573 669.2 573.4 668.9 573.9C668.6 574.4 668.1 575.2 667.8 575.7C667.4 576.2 666.9 577 666.5 577.5C666.1 578 665.7 578.6 665.5 578.8C665.4 579.1 665.2 579.3 665 579.4C664.8 579.6 664.2 580.4 663.4 582C662.6 583.5 661.9 584.3 661.3 584.3C661 584.3 660.7 584.1 660 583C659.5 582.3 659 581.7 659 581.7C658.9 581.7 658.4 581 657.9 580.3C656.8 578.6 656.4 578 655.8 577.5C654.9 576.5 653.7 574.7 653.3 573.6C653 572.8 652.3 571.6 652 571.4C651.9 571.4 651.7 571 651.6 570.7C651.3 569.9 650 568.1 649.2 567.1C648.6 566.5 648 565.4 647.7 564.5C647.6 563.9 645.4 561.9 644.5 561.5C643.7 561.1 642.8 561.3 642.5 561.9C642.4 562.1 642 562.6 641.6 563.1C640.9 563.9 639.9 565.3 639.6 565.9C639.5 566 639.3 566.3 639.1 566.5C639 566.6 638.7 567.3 638.4 568C637.9 569.4 637.6 569.9 637 570.6C636.7 570.9 636.2 571.7 635.9 572.4C635.6 573.1 635.3 573.7 635.2 573.8C634.9 573.9 633.8 575.5 633.3 576.5C633 577 632.6 577.7 632.4 578.1C631.2 579.7 630.4 581.2 629.5 583C629.3 583.5 628.6 583.8 628.1 583.6C628 583.5 627.6 582.9 627.2 582.2L626.6 581.1L626.6 574.9C626.7 571.5 626.7 568.3 626.8 567.8C627 566.9 627 564.8 627 560C627 557.5 627 557.3 627.4 556.5C627.7 555.9 627.8 555.7 628.3 555.7C628.9 555.6 629.2 555.8 631.6 557.6C632.9 558.5 633.9 558.7 637.7 558.7L640.6 558.8L642.1 559.4C642.9 559.8 643.7 560.1 644 560C644.2 560 645 559.7 645.9 559.4C647.2 558.9 647.5 558.8 648.2 558.9C649.2 559.1 654.7 558.6 656.4 558.2C659.9 557.3 661.4 557.3 665 558.1C667.2 558.6 668.4 558.6 678.4 558.7C683 558.8 689.8 558.5 691.1 558.2C694.8 557.4 697.2 557.3 699.1 557.9C700.8 558.4 701.6 558.5 705.2 558.7C707.5 558.7 709.5 558.9 710.9 559.2L713 559.5L715 559.1C716.8 558.7 717.6 558.6 720.1 558.6C723.2 558.5 723.4 558.5 724.9 557.6C725.2 557.4 725.6 557.1 725.8 557C725.9 556.8 726.4 556.5 726.8 556.3C727.2 556.2 727.8 555.8 728.1 555.6C728.8 555.1 729.1 555.1 729.8 555.5C730.6 556 730.7 556.8 730.8 561.2C730.8 563.4 730.8 565.3 730.9 565.7C731 566 731.1 568.5 731.1 571.3C731.3 580.4 731.3 579.5 730.7 580.6C730.3 581.4 730.1 581.6 729.6 581.8C728.5 582.2 727.9 581.7 726.3 579.3C726 578.8 725.5 578.2 725.2 577.9C725 577.7 724.6 577.2 724.5 577C724.4 576.7 724 576.2 723.7 575.8C723.4 575.4 723 574.8 722.8 574.5C722.6 574.2 722.2 573.8 722 573.5C721.8 573.2 721.6 572.7 721.4 572.4C721.3 572 721 571.5 720.8 571.1C720.4 570.6 720.1 569.9 719.5 569.1C719.4 568.9 719 568.4 718.5 567.9C717.7 567.2 716.3 565.3 716.3 565C716.3 564.8 715.1 562.9 714.7 562.6C714.2 562.2 712.9 561.7 712.6 561.8C711.7 562.1 710 563.7 709.6 564.7C709.2 565.5 708.1 566.9 707.2 567.8C706.7 568.3 706.3 568.8 706.2 569C706.1 569.5 705.6 570.2 704.7 571.2C704.4 571.6 703.9 572.3 703.7 572.8C703.5 573.2 703.1 573.8 702.9 574.1C702.7 574.4 702.3 575.2 701.9 575.9C701.1 577.4 700.9 577.9 700.1 578.8C699.3 579.7 698.8 580.6 697.9 582.5C697.1 584 696.7 584.7 696.3 584.7C696.3 584.7 695.9 584.4 695.5 584.2ZM629.2 549.3C628.4 549.1 627.7 548.4 627.3 547.2C626.8 545.6 626.7 541.5 626.8 524.9C626.9 507.2 626.9 507.9 626.8 481.9L626.8 459.4L627.2 458.5C627.8 457.5 628.7 456.5 629.2 456.5C630.9 456.5 656.4 456.3 657.3 456.3C658 456.3 674.3 456.4 693.5 456.4C712.7 456.4 728.5 456.5 728.7 456.5C729.1 456.5 730.1 457.6 730.5 458.4C730.8 459 730.9 459.4 730.9 460.8C730.9 461.7 730.9 466.2 730.9 470.8C730.9 475.5 730.9 480 731 480.8C731.1 481.8 731.1 485.5 731 491.3C730.9 496.2 730.8 508.3 730.9 518.1C730.9 548.8 730.9 548.4 729.8 549.2L729.3 549.5L723.2 549.4C719.1 549.2 716 549.2 713.8 549.3C711.4 549.4 709 549.4 705.9 549.3C702.5 549.1 700.3 549.1 696.2 549.3C690 549.5 673.5 549.6 672.1 549.3C670.6 549.1 668.8 549.1 658.1 549.3C651.4 549.4 647.1 549.4 644.2 549.3C636.4 549 633.2 549 631.9 549.3C630.6 549.5 630 549.5 629.2 549.3ZM678.3 539.2C678.7 539.1 681.3 538.9 684.1 538.7C692.5 538.3 693.2 538.2 693.9 536.9C694.5 535.9 695 533.2 695 530.9C695 529.1 695 528.9 695.5 527.8C695.8 527.1 696.1 526.5 696.3 526.4C696.7 526.1 699.6 525.7 702.1 525.5C704.1 525.4 704.4 525.3 705.3 524.8C706.2 524.3 706.4 524.2 706.8 523.2L707.3 522L707.4 519.1C707.5 516 707.6 515.2 708.3 514.4C709 513.6 709.3 513.5 711.4 513.5C713.8 513.5 714.9 513.3 715.7 512.8C717.9 511.3 718.1 510.8 718.4 507.5C718.7 504.4 718.7 500.7 718.4 498.4C718.2 496.4 718 496.1 716.6 495.4C715.8 495 715.5 494.9 712.9 494.8C709.8 494.7 709 494.5 708.3 493.7C707.7 492.7 707.5 491.9 707.5 489.4C707.5 484.3 707.1 482.9 705.7 482.3C704.6 481.8 701.9 481.6 700.3 481.8C698.5 482.1 696.6 481.7 696.2 481C696.1 480.7 695.9 480.5 695.8 480.5C695.3 480.5 694.8 477.6 694.8 474.7C694.8 471.7 694.3 470.1 693.2 469.4C692.6 469.1 689 469 679 468.9C673.1 468.9 667.8 468.8 667.2 468.8C666.2 468.7 666 468.7 665.3 469.1C663.9 469.9 663.6 470.7 663.4 474.1C663.2 478.8 662.9 480.1 662 480.4C661.8 480.5 661.6 480.7 661.5 480.8C661.1 481.6 660.1 481.9 657.2 482C654.4 482.1 652.7 482.4 652.1 482.7C651.5 483 650.9 483.7 650.7 484.3C650.4 485.1 650.2 488.3 650.2 490.6C650.2 492.7 650 493.2 648.8 493.9C648.2 494.3 647.8 494.4 645.9 494.6C643.5 494.8 640.7 495.5 640 496C639.7 496.2 639.4 496.7 639.2 497.4C638.5 499.3 638.4 499.8 638.7 503C638.8 504.7 638.9 506.7 638.9 507.5C638.9 509.1 639.4 510.7 640.1 511.6C640.3 511.8 640.5 512.1 640.5 512.1C640.5 512.2 641.1 512.5 641.9 512.8C643.1 513.3 643.4 513.4 645.5 513.5C647.6 513.6 647.8 513.6 648.6 514.1C649 514.4 649.5 514.9 649.7 515.2C650.1 515.8 650.3 517.9 650.3 520C650.3 522.3 651.1 524.1 652.3 524.7C653.4 525.3 653.9 525.4 656.5 525.5C659.6 525.6 660.2 525.8 661.6 527.3C662.9 528.6 663.1 529.2 663.4 534.2C663.6 536.6 664.3 537.9 665.6 538.5C666.2 538.8 666.9 538.8 670 538.9C672 538.9 673.8 539.1 674.1 539.1C674.7 539.4 677.4 539.4 678.3 539.2ZM678.2 521.4C677.9 521.2 677.5 520.9 677.4 520.8C677.2 520.6 677 520.5 676.9 520.5C676.7 520.5 675.7 519.5 674.5 518.1C674 517.6 673.3 516.8 673 516.5C672.7 516.1 672.1 515.6 671.8 515.2C671.4 514.8 671 514.5 670.9 514.5C670.6 514.5 669.5 513.3 668.9 512.1C668.5 511.4 667.8 510.5 667.3 510C666.8 509.5 666.2 508.7 665.8 508.4C665.5 508 665.1 507.6 665 507.6C664.5 507.4 663.7 506 663.5 505.1C663.2 503.5 663.8 501.7 665.2 500.3C665.7 499.8 666.2 499.1 666.5 498.8C666.7 498.4 667.6 497.4 668.5 496.5C669.4 495.6 670.3 494.6 670.5 494.2C670.8 493.9 671.1 493.5 671.2 493.4C671.4 493.2 671.5 493.1 671.5 493C671.5 492.9 672.2 492.2 673 491.4C673.8 490.6 674.8 489.5 675.1 489C676.2 487.5 678.6 485.7 679.4 485.7C680.5 485.7 682.6 487.7 683.4 489.4C683.6 490 685 491.4 687.1 493.3C687.5 493.7 688.2 494.4 688.5 494.8C688.8 495.1 689.5 495.8 689.9 496.2C690.8 497 691.2 497.4 691.5 498C691.6 498.2 691.8 498.5 691.9 498.6C695.2 502.4 695.3 502.6 695.5 503.7C695.6 505.5 695.5 506 694 507.4C693.3 508.2 692.6 508.9 692.5 509.2C691.4 510.8 687.7 514.5 687.2 514.5C687 514.5 685.6 515.8 685 516.6C684.6 517.1 681.4 520.5 680.6 521.2C680.1 521.7 679.1 521.7 678.2 521.4ZM629.8 445.9C628.5 445.6 627.8 445 627.3 444C626.6 442.6 626.5 441.4 626.8 438.8C627.1 435.6 627.4 434.8 628.2 434.2L628.9 433.7L633 433.7C635.3 433.7 638.1 433.6 639.3 433.5C640.5 433.4 643.7 433.3 646.4 433.3C649.2 433.2 651.8 433.1 652.2 433.1C653.3 432.9 655.2 433.5 656 434.2C656.7 434.9 656.8 435.5 656.3 437.7L656 439.5L656.2 440.5C656.4 441 656.7 441.7 657 442C658 443.2 657.8 444.8 656.6 445.3C656 445.6 655.5 445.7 652.6 445.7C650.8 445.7 647.5 445.7 645.2 445.8C638.4 446.1 630.8 446.1 629.8 445.9ZM705.9 446C705.6 445.9 704.4 445.9 703.2 445.9C701.5 445.9 701.2 445.9 700.6 445.6C699.3 444.9 699.2 443.9 700.4 442.2C700.8 441.6 701.2 440.9 701.3 440.7C701.7 440.1 701.4 438.1 700.9 436.9C700.4 435.6 700.5 435.1 701.2 434.3C702.3 433.3 705.3 432.7 707.1 433.2C708.7 433.6 719.6 433.7 722.5 433.3C723.3 433.2 724.7 433.1 725.6 433L727.4 432.8L728.1 433.1C728.4 433.3 728.8 433.5 729 433.5C729.3 433.5 730.4 434.7 730.5 435.2C730.9 436.4 731.2 439.5 731.1 440.4C730.8 442.6 729.8 445 728.9 445.3C727.9 445.7 724.7 446.2 723.9 446.1C723 446 714.1 446 709.5 446.1C707.9 446.1 706.3 446.1 705.9 446ZM666.6 445.7C665.6 445.6 664.7 445.5 664.6 445.4C664 445.2 664.2 443 664.9 442.6C665.3 442.3 665.7 441.4 666.1 440C666.4 438.9 666.4 438.6 666.2 437.3C665.8 434.6 665.8 434.6 666.2 434.1C666.8 433.4 667.5 433.3 670.7 433.5C672.8 433.7 673.9 433.7 675 433.5C676 433.4 677.7 433.4 679.9 433.4C682.3 433.5 684.1 433.5 685.8 433.3C687.9 433.1 688.4 433.1 689.9 433.4C691.3 433.6 691.6 433.7 692 434.1L692.5 434.6L692.4 435.8C692.4 436.4 692.2 437.3 692 437.8C691.5 439.2 691.6 439.9 692.4 441.7C693.5 443.9 693.5 444.2 692.9 444.6C692 445 690.3 445.3 688.8 445.3C687.9 445.3 686.7 445.4 686.1 445.5C685.2 445.7 683.5 445.8 678.8 445.8C675.4 445.8 671.6 445.9 670.5 445.9C669.1 446 667.8 445.9 666.6 445.7ZM660.3 423.4C657.9 423.3 651.4 423.2 643.3 423.3L630.1 423.3L629.4 423C627.6 422.2 627.1 421.4 626.7 418.8C626.6 418.1 626.5 414.1 626.4 409.8C626.3 405.6 626.3 401.7 626.3 401.3C626.3 400.9 626.4 399.1 626.5 397.2C626.8 392.4 626.8 368.8 626.5 367.8C626.4 367.2 626.3 365.2 626.3 361.8C626.2 358.9 626.1 355.7 626.1 354.7C626 353.4 626.1 351.6 626.2 349.2C626.6 344.2 626.8 337.8 626.5 336.1C626 332.4 626 331.1 626 322.6C626 316.1 626.1 313.3 626.2 312.2C626.4 311.3 626.5 310.1 626.5 309.6C626.5 308.8 626.6 308.2 627 307.3C628 305 627.7 305 638.8 304.9C643.6 304.8 650.4 304.8 653.9 304.8C657.4 304.8 663.9 304.8 668.3 304.8C672.8 304.8 688.2 304.8 702.5 304.9C731.1 304.9 728.9 304.8 730.1 305.9C731 306.8 731.2 307.9 731 310.9C730.9 312.3 730.8 323.1 730.8 334.9C730.8 346.7 730.8 357.4 730.8 358.5C730.8 359.6 730.8 373.5 730.8 389.3C730.9 416.3 730.9 418.2 730.6 419.7C730.3 421.5 730 421.9 728.3 422.7L727.2 423.2L717.2 423.4C711.6 423.4 703.6 423.5 699.4 423.4C695.2 423.3 688.5 423.3 684.5 423.2C680.5 423.2 677 423.2 676.7 423.1C676.4 423 675.2 423.1 673.8 423.2C670.8 423.6 665.3 423.6 660.3 423.4ZM683.6 410.5C684.5 410.4 685.1 410 685.8 408.9C686.4 408 686.6 407.3 686.9 404.6C687.2 401.9 687.7 400.9 689.1 400.3C690 399.8 690.2 399.8 691.6 399.8C693.2 399.8 694.9 399.6 695.6 399.3C695.8 399.2 696.3 398.8 696.7 398.5C697.7 397.6 697.9 396.9 698.1 394.7C698.2 391.9 698.4 390.4 698.7 389.9C699.4 388.9 701.5 388.4 705.5 388.2C708.2 388 708.8 387.8 709.8 386.8C710.7 385.9 710.8 385.1 710.8 382C710.8 379.5 710.9 379.1 711.3 378C711.5 377.2 711.8 376.7 711.8 376.7C711.9 376.7 712.2 376.5 712.4 376.3C713.1 375.8 714.3 375.5 716.3 375.5C718.7 375.5 720.2 374.9 720.4 374C720.5 373.8 720.7 373.3 720.9 372.9C721.2 372.3 721.2 372 721.2 369.9C721.1 366.6 721.1 365.7 721.2 361.7L721.2 358.2L720.8 357.3C720.5 356.8 720.1 356.2 719.9 356C719.3 355.4 717.3 354.9 715.5 355C712.1 355.1 710.5 353.7 710.8 351.2C710.9 350.1 710.8 348.9 710.3 345.8C710.1 344.5 709.8 344.1 708.1 343.3L706.9 342.7L703.8 342.4C701.1 342.3 700.7 342.2 700 341.8C698.7 341.1 698.6 340.7 698.1 335.4C698 334 697.8 332.6 697.6 332.3C697.4 331.7 696.7 331.1 695.8 330.6C695.2 330.3 692.3 329.9 690.3 329.7C688.4 329.6 688.1 329.5 687.6 328.4C687.2 327.5 687.2 327.1 687 324.8C686.9 323.2 686.7 321.7 686.6 321.2C686.2 320 685.2 318.9 684.3 318.7C683.4 318.4 675.2 318.3 673.8 318.5C672.8 318.7 672.7 318.8 671.8 319.6L670.9 320.6L670.7 322C670.6 322.8 670.5 324.2 670.5 325.2C670.6 326.6 670.5 327 670.2 327.7C669.5 329.3 668.5 329.9 666.3 329.8C665.6 329.8 664.6 329.9 664 330.1C663.4 330.2 662.5 330.4 662 330.5C659.7 330.9 659 332.3 658.7 337.1C658.5 340.6 658.4 341 657.4 341.7C656.5 342.4 655.7 342.5 653 342.5C651.5 342.5 650.4 342.6 649.7 342.8L648.6 343.1L647.7 344.4C646.7 345.8 646.7 346 646.5 350.2L646.4 353.1L645.9 353.8C645.1 354.9 644.6 355 641.6 355.2C638.5 355.3 637.8 355.5 637 356.2C636.2 357.1 635.8 358.3 635.8 360.5C635.8 361.5 635.7 363 635.6 363.9C635.2 366 635.3 371.6 635.7 372.6C636.4 374 637.1 374.6 638.8 375C639.1 375.1 639.8 375.3 640.3 375.4C640.8 375.6 641.9 375.7 642.8 375.7C644.2 375.7 644.3 375.7 644.9 376.2C646.1 377 646.4 378 646.6 381.2C646.7 382.7 646.8 384.2 646.8 384.6C646.8 384.9 646.9 385.3 647 385.5C647.2 385.6 647.4 386.1 647.7 386.5C647.9 386.9 648.2 387.4 648.5 387.5C649.1 387.9 650.8 388.1 653.3 388.2C656.1 388.4 656.7 388.5 657.6 389.4C658.5 390.3 658.6 390.8 658.8 394.2C659 397.4 659.1 397.8 660.7 398.8C661.8 399.6 664.1 400.1 665.4 399.9C666.4 399.8 669 400.4 669.5 400.9C670.1 401.6 670.5 402.6 670.5 403.6C670.5 406.3 671.2 408.9 672.2 409.7C673 410.3 673.6 410.4 676.8 410.5C681.4 410.7 682.7 410.7 683.6 410.5ZM673.8 387.6C672 387.3 671.6 386.5 671.3 383.7C671.1 380.7 670.7 377.9 670.4 377.3C669.9 376.1 669.2 375.6 667.8 375.4C667.3 375.4 666.4 375.2 665.8 375.1C665.1 375 664.1 374.8 663.4 374.7C661.8 374.4 661.5 374.2 660.7 372.1C660.6 371.7 660.2 371 659.9 370.6C659.6 370.2 659.2 369.7 659 369.4C658.3 368.6 657.4 367.8 657 367.6C656 367.1 655.5 365.2 656.1 364.2C656.2 364 656.9 363.2 657.6 362.6C658.8 361.5 659.7 360.1 660.4 358.5C660.6 358.1 660.9 357.3 661.3 356.8C661.9 355.7 662.6 355.3 664 355.3C665.8 355.3 668.3 355 669 354.7C670.5 354.1 670.9 352.9 671.1 348.1C671.2 344.5 671.3 344.1 672.2 343.3C673 342.7 674.5 342.5 677.2 342.5C678.5 342.6 680.4 342.6 681.5 342.5C683.6 342.5 684 342.6 684.9 343.4C685.7 344.2 686 345.1 686.2 347.5C686.5 352.1 686.6 352.8 687.2 353.6C688 354.9 688.4 355 692.7 355.4C694.3 355.6 696.1 357 696.5 358.6C696.8 359.5 698.1 361.4 699.3 362.7C700.5 363.8 701.2 364.9 701.2 365.5C701.2 366 700.5 367.2 699.7 368.2C698.5 369.5 697.7 370.8 697.4 371.6C697.3 371.9 697.1 372.3 696.9 372.5C696.8 372.6 696.7 372.9 696.6 373.1C696.3 374.2 694.8 374.8 691.2 375C688.8 375.2 687.9 375.4 687.3 376.2C686.7 377 686.5 377.9 686.4 381.6C686.3 384.8 686.3 385.1 685.9 385.8C685.3 387.1 684.6 387.5 682.7 387.7C680.5 387.9 675.2 387.8 673.8 387.6ZM629.6 293.3C627 292.7 625.8 290.9 626.2 288.4C626.5 286.1 627.6 284.8 629.4 284.2C630 284 630.7 283.8 630.9 283.8C631.6 283.8 633.1 282.6 634.7 280.7C634.8 280.6 635.2 280.1 635.6 279.8C636 279.5 636.4 279 636.5 278.8C636.6 278.7 636.8 278.5 636.9 278.5C637 278.5 637.3 278.3 637.5 278.1C637.9 277.9 638.4 277.8 639.1 277.7C640.7 277.6 640.9 277.7 645.4 282.1C647.8 284.3 651.3 287 652 287C652.6 287 653.3 286.4 653.5 285.9C653.8 285.1 653.4 282.7 652.9 281.3C652.7 280.7 652.5 279.9 652.4 279.6C652.4 279.2 652 278.4 651.6 277.7C651.2 277 650.7 276.1 650.5 275.7C650.2 275 649.6 274.2 649.1 273.5C648.9 273.3 648.5 272.6 648.3 272C647.9 270.7 647.4 269.6 647.1 269.5C647 269.4 646.6 268.8 646.3 268.1C645.9 267.5 645.4 266.7 645.2 266.3C644.9 266 644.5 265.5 644.4 265.2C644.2 265 643.8 264.4 643.5 264C643.2 263.6 642.8 263 642.6 262.6C642.3 261.9 641.2 260.5 640.9 260.5C640.8 260.5 640.5 260.3 640.2 260C639.3 259.1 637.8 259.1 636.6 260.1C636.2 260.4 635.7 260.8 635.4 261C634.2 262.1 633 263.8 632.6 265.3C632.5 265.6 632.3 266.1 632.1 266.5C631.9 266.9 631.7 267.8 631.6 268.5C631.6 269.2 631.3 270.2 631.2 270.8C631 271.3 630.7 272.1 630.6 272.6C630.2 274.1 629.1 277.1 628.8 277.4C628.7 277.6 628.5 277.9 628.5 278C628.4 278.2 628.1 278.5 627.7 278.8L627.1 279.2L626.9 278.9C626.8 278.7 626.6 278.3 626.5 278C626.2 277 626.1 268.1 626.3 264.5C626.7 257.4 626.8 255.8 626.5 254.8C626.3 253.6 626.3 250.7 626.5 249.8C626.9 248.2 628.6 248.6 631.2 251L632.6 252.3L634 252.5C635.1 252.7 636.4 252.8 640.2 252.8C646.2 252.7 647.3 252.6 648.1 252C648.5 251.8 648.9 251.6 649 251.5C649.3 251.4 651.5 249.5 652.6 248.4C653.4 247.6 654.2 246.1 654.2 245.4C654.2 244.7 653.3 243.9 652.4 243.7C651.6 243.5 646.5 243.6 635.2 243.7C628.3 243.8 626.9 243.5 626.2 241.8C625.9 241.1 625.9 239.2 625.9 212.3C625.9 191.6 626 183.4 626.1 183C626.2 182.7 626.4 182 626.5 181.5C626.8 180.1 627.5 179.5 628.8 179.4C630.1 179.3 630.9 179.5 631.8 180.4C632.3 180.8 633.2 181.6 634 182C634.8 182.5 636 183.3 636.7 183.8C637.4 184.2 638.3 184.8 638.7 185C639.1 185.2 639.7 185.7 640.1 186C640.5 186.4 640.9 186.7 641 186.7C641.1 186.7 642 187.2 642.9 187.9C646 189.9 646.8 190.5 647 190.5C647 190.5 647.3 190.7 647.5 190.9C647.7 191.1 648.2 191.5 648.7 191.6C649.1 191.8 649.9 192.2 650.4 192.5C650.9 192.8 651.6 193.2 651.8 193.3C652.7 193.8 654.3 195 654.4 195.3C654.4 195.4 654.6 195.5 654.7 195.5C654.9 195.5 655.1 195.6 655.4 195.8C655.6 196 656.1 196.2 656.6 196.4C657.9 196.8 661.3 198.8 661.3 199.2C661.3 199.2 661.6 199.4 661.8 199.5C662.1 199.6 662.7 200.1 663.1 200.5C663.6 200.9 664.5 201.6 665.1 201.9C665.8 202.2 666.9 202.9 667.6 203.5C668.2 204 668.9 204.5 669 204.5C669.1 204.5 669.3 204.6 669.5 204.8C669.7 205 670.3 205.2 670.7 205.4C671.5 205.7 673.5 206.9 673.5 207.1C673.5 207.3 674.8 208.2 675.5 208.5C675.8 208.6 676.7 209.1 677.5 209.5C678.3 210 679.1 210.3 679.2 210.3C679.2 210.3 679.5 210.5 679.8 210.7C680.1 211 680.6 211.3 681 211.5C681.4 211.7 682.2 212.2 682.8 212.7C683.3 213.2 684.1 213.8 684.4 214C684.8 214.2 685.3 214.7 685.6 214.9C686 215.2 686.8 215.7 687.5 216.1C688.1 216.4 688.9 216.9 689.1 217.1C689.9 217.7 690.9 218.3 691.6 218.6C692.3 218.9 693 219.4 693.9 220.3C694.7 221 695.5 221.5 695.9 221.5C696.4 221.5 697.5 222.2 698.1 222.9C698.5 223.3 698.8 223.7 698.9 223.7C699.3 223.7 701 224.7 701.7 225.3C702.1 225.7 702.7 226.2 703 226.3C703.3 226.4 703.8 226.7 704 226.9C704.3 227 704.9 227.3 705.4 227.4C705.9 227.6 706.4 227.8 706.5 227.9C706.6 228 707.1 228.3 707.5 228.6C707.9 228.8 708.6 229.2 708.9 229.5C709.3 229.8 710.2 230.4 710.9 230.9C711.6 231.4 712.6 232.1 713 232.4C714.2 233.3 715.4 234.1 716.4 234.6C717.6 235.2 719.6 236.4 720.4 237.1C721.1 237.7 721.4 238 722.4 238.8C722.7 239 723.4 239.4 723.9 239.6C725.8 240.4 726.3 240.7 726.4 241C726.5 241.2 726.7 241.4 726.9 241.4C727.1 241.5 727.7 242 728.3 242.6C730.5 244.7 731.1 247.1 731 253.2C731 255.1 730.8 271.8 730.8 280.9C730.7 290.5 730.7 291 729.9 291.8C729.1 292.7 727.8 293.4 726.8 293.5C726 293.5 722.9 293.3 718.8 292.8C717.9 292.7 716.1 292.7 714.4 292.8C712.9 292.8 711 292.9 710.2 292.9C709.5 292.8 707.8 293 706.3 293.1C701.8 293.6 694.9 293.4 688.2 292.7C687.6 292.6 685.8 292.6 684.3 292.7C682.8 292.8 678.6 292.9 674.9 292.9C670.6 293 667.6 293.1 666.7 293.2C664.9 293.5 656.8 293.5 656.1 293.2C655.9 293.1 655.1 293 654.4 293C653.8 293 652.3 292.9 651.1 292.8C649.4 292.6 647.5 292.6 642.8 292.7C639.4 292.7 636.5 292.8 636.3 292.9C636.1 293 635 293.1 631 293.4C630.6 293.5 630 293.4 629.6 293.3ZM697.7 287.3C697.8 287.2 698.6 286.5 699.3 285.8C700.1 285.1 700.8 284.5 700.9 284.4C701 284.3 701.6 283.7 702.2 283C703.4 281.6 705.5 279.5 706.9 278.3C708.3 277.1 709.7 277 710.9 278C712.9 279.5 714.8 281.4 715.8 282.7C716.8 284 717.2 284.4 718 284.8C719.4 285.5 721.9 285.7 722.8 285.3C723.4 285 723.8 284.1 723.8 283.3C723.8 282.1 723.4 280.3 722.9 279.8C722.7 279.4 722.5 279.1 722.5 279C722.5 278.8 722.3 278.4 722 277.9C721.7 277.5 721.5 277.1 721.5 277.1C721.5 277 721.2 276.4 720.8 275.6C720.1 274.2 719.7 273.6 718.5 272.1C718.1 271.7 717.6 271 717.5 270.7C717.3 270.4 717 270 716.9 269.7C716.7 269.5 716.5 269.2 716.5 269.1C716.5 268.4 714.1 264.8 713 263.8C712.8 263.7 712.4 263 712 262.3C711 260.3 709.5 259 708.3 259C707.5 259 706.4 259.6 705.2 260.8C704.6 261.5 703.8 262.2 703.5 262.5C703.2 262.7 702.3 263.5 701.7 264.3C701 265 700.1 265.9 699.7 266.2C698.4 267.2 696.9 269.7 696.4 271.8C696.3 272.5 695.8 274 695.5 275.1C694.8 277.3 694.4 280 694.4 284.1C694.4 286.5 694.6 287 695.6 287.4C696.1 287.7 697.2 287.6 697.7 287.3ZM662.6 286.4C663 286.2 663.8 285.7 664.2 285.3C664.6 284.8 665.1 284.5 665.2 284.5C665.4 284.5 669 280.9 670.4 279.3C671.2 278.5 672.6 277.5 673.4 277.3C674.3 277.1 675.4 277.3 676.3 277.9C676.6 278.2 676.9 278.3 677 278.3C677.3 278.3 678.3 279.5 678.6 280.1C678.8 280.6 679.3 281.1 680.7 282.1C681.2 282.5 681.5 282.8 681.5 282.9C681.5 283.2 683.7 285.1 684.7 285.8C686.4 286.7 687.6 286.7 688.8 285.7L689.4 285.2L689.1 284.4C688.9 283.9 688.7 283 688.5 282.4C688.2 281.2 687.5 279.7 686.6 278.1C685.8 276.8 685.5 276.2 685.5 276C685.5 275.9 685.1 275 684.6 274C684.2 273 683.7 272 683.6 271.6C683.4 271 682.8 270.3 682.1 269.5C681.9 269.3 681.7 268.8 681.5 268.4C681.1 267.3 680.2 265.7 679.8 265.5C679.6 265.4 679.5 265.2 679.5 265.1C679.5 264.9 679.3 264.7 679.2 264.5C679 264.4 678.6 263.9 678.3 263.4C678.1 263 677.7 262.4 677.5 262.2C676.7 261.6 675.4 260.2 674.8 259.5C674.1 258.7 673.4 258.4 672.1 258.5C670.9 258.6 670.1 259.1 669.2 260.4C668.6 261.2 667.2 262.8 665.3 264.8C664.5 265.6 663.7 266.5 663.6 266.8C663.5 267 663 267.6 662.6 268.1C661 269.8 660.7 270.4 659.9 273.6C659.1 276.7 658.7 279.6 658.8 282.8C658.8 284.6 659.5 285.9 660.8 286.6C661.3 286.9 661.7 286.9 662.6 286.4ZM707.3 252.8C711.6 252.9 716 252.6 716.6 252.3C717.1 252 719.3 250.6 720.5 249.8C720.8 249.6 721.2 249.2 721.5 249C721.9 248.5 723.8 247.5 724.1 247.5C724.3 247.5 725.4 246.2 725.6 245.8C725.8 245.2 725.5 244.8 724.4 244.3C722.7 243.5 722.1 243.5 711.4 243.5C698.5 243.6 696.7 243.6 695.4 244.2C694.1 244.9 693.8 245.4 694.3 246.9C695.3 249.9 697.3 252.1 699.6 252.7C700.4 252.9 701 253 702.3 252.9C703.3 252.8 705.5 252.8 707.3 252.8ZM677.6 252.7L681.2 252.6L682.1 251.9C683.3 251.1 685.4 249.4 685.6 249C685.7 248.8 686.1 248.4 686.5 248.1C687.8 247.1 688.4 245.4 687.8 244.6C687 243.5 685 243.4 670.1 243.6L660.9 243.8L660 244.2C658.7 245 658.5 245.5 659 246.9C659.2 247.4 659.4 248.3 659.5 248.8C659.9 250.4 661.3 252.1 662.7 252.6C663.5 252.8 671.5 252.9 677.6 252.7Z"/><path fill="#C08649" fill-rule="evenodd" d=""/><path fill="#F6F4EF" fill-rule="evenodd" d="M601.8 913.2C596.5 912.7 593.5 912.5 591.7 912.5C589.8 912.5 586.1 912.3 581.4 912C580 911.9 577.5 911.7 575.8 911.7C570.9 911.4 563.4 910.7 560.6 910.3C558.3 909.9 556.1 909.7 551.8 909.4C549.4 909.3 547.4 909.1 547 908.9C546.6 908.8 545.8 908.7 545.2 908.6C544 908.5 543.2 908.3 542.4 907.9C542.1 907.8 540.9 907.5 539.7 907.4C535.7 907 532.6 906.5 531.5 906.1C531.1 905.9 530.1 905.7 529.3 905.6C528.6 905.5 527.1 905.2 526.2 905C525.2 904.8 523.3 904.6 522 904.4C519.7 904.2 518.3 903.8 516.9 903.1C516.2 902.8 511.7 901.6 510.4 901.4C510 901.4 508.3 900.9 506.8 900.4C505.2 899.9 503.7 899.5 503.3 899.4C503 899.3 502.5 899.2 502.3 899C501.3 898.6 498.4 897.6 497.4 897.5C496.9 897.4 495.5 897 494.3 896.6C493.2 896.1 491.9 895.7 491.5 895.6C491.1 895.5 490.4 895.2 489.9 894.9C489.4 894.7 488.9 894.5 488.8 894.5C488.7 894.5 488.3 894.3 487.9 894.2C487 893.7 484.9 892.9 483.7 892.6C482.8 892.4 481.9 891.9 480.7 891.1C480.5 891.1 480 890.8 479.4 890.5C478.9 890.2 478.3 889.9 478.2 889.8C477.8 889.6 475.3 888.5 475.1 888.5C475 888.5 474.7 888.3 474.4 888.1C474.1 887.8 473.5 887.6 473.2 887.4C472.5 887.2 471.3 886.5 470.7 886C470.4 885.6 470.1 885.5 468.6 884.7C467.9 884.3 467.3 883.8 465.1 881.4C464.7 881 464 880.4 463.6 880C462.7 879.2 462.4 878.9 461.2 877C460.8 876.3 460.1 875.1 459.6 874.4C458.6 873 458.2 871.8 457.8 869.9C457.6 868.6 457.7 866 457.9 865.6C458 865.5 458.2 865.1 458.3 864.8C458.6 863.9 459.6 861.9 460 861.4C460.2 861.2 460.6 860.6 460.9 859.9C461.7 858.5 462.4 857.5 462.8 857.4C463 857.4 463.5 856.9 463.9 856.4C464.8 855.2 470.2 850.8 471 850.6C471.2 850.5 471.6 850.3 471.8 850.2C472.1 850 472.6 849.7 473.1 849.5C473.5 849.2 474.3 848.8 474.8 848.5C475.3 848.3 476.3 847.9 476.9 847.7C478.2 847.2 479.9 846.4 480.4 846C480.7 845.7 482.2 845.1 483.8 844.7C484.4 844.5 485.2 844.2 485.5 844C486.2 843.6 488.2 842.9 489.9 842.5C490.6 842.3 491.3 842.1 491.4 842C491.5 841.9 491.9 841.7 492.3 841.6C492.8 841.4 493.5 841.1 493.9 840.9C494.4 840.7 495.9 840.3 497.3 840C498.8 839.7 500.4 839.3 500.9 839.1C501.9 838.8 504.5 838.2 508.2 837.5C509.2 837.3 510.7 837 511.8 836.8C513.1 836.5 514.2 836.4 516 836.4C517.9 836.4 518.5 836.3 518.9 836.1C519.4 835.8 520.3 835.7 520.3 836C520.3 836.3 519.3 836.9 518.4 837.1C517.9 837.2 517.1 837.5 516.7 837.7C516.3 837.9 515.6 838.2 515.3 838.3C514.9 838.5 514.3 838.8 513.9 839C513.4 839.3 513 839.5 512.9 839.5C512.8 839.5 512.3 839.7 511.9 840C511.5 840.3 511 840.5 510.9 840.5C510.7 840.5 510.4 840.6 510.2 840.8C509.2 841.5 507.6 842.2 505.8 842.9C503.8 843.5 501.4 844.6 500.2 845.4C499.8 845.6 499.2 846 498.8 846.2C498.3 846.5 497.7 846.9 497.5 847.1C497.2 847.3 497 847.5 496.9 847.5C496.8 847.5 496.3 847.7 495.7 848C494.6 848.6 492.2 850.6 490.1 852.7C489.6 853.2 488.9 853.9 488.6 854.2C488.2 854.5 487.8 855 487.6 855.2C487.4 855.4 486.9 856.1 486.5 856.6C485.1 858.4 483.9 861.7 483.7 864.2C483.5 866.2 483.6 867.1 484.4 869.5C485.4 872.4 485.8 873.2 488.6 876.1C489.1 876.6 489.8 877.4 490.2 877.8C490.5 878.2 490.8 878.5 490.9 878.5C491.1 878.5 491.9 879.2 493.5 880.6C494.2 881.2 495.1 881.9 495.4 882.2C495.7 882.4 496.3 882.8 496.6 883C496.9 883.2 497.5 883.7 497.9 883.9C498.3 884.2 498.7 884.5 498.9 884.6C499.1 884.6 499.8 885 500.4 885.3C502.1 886.3 504.5 887.5 504.8 887.5C504.9 887.5 505.5 887.7 506 888C507.7 888.8 508.6 889.2 510.1 889.7C510.9 889.9 511.8 890.4 512.1 890.6C513 891.3 513.5 891.6 515.5 892.2C516.5 892.4 517.7 892.8 518.2 893C518.7 893.2 519.8 893.5 520.5 893.6C522.3 893.9 524.8 894.6 526 895.1C526.4 895.3 527 895.5 527.1 895.5C527.3 895.5 527.7 895.7 528 895.9C528.6 896.3 530.5 896.8 533.5 897.2C534.5 897.4 535.6 897.6 536 897.8C536.4 897.9 537.5 898.1 538.5 898.3C539.5 898.4 541 898.7 542 898.9C543 899.1 544.4 899.4 545.2 899.5C545.9 899.6 547.8 900 549.3 900.5C552.2 901.4 553 901.5 556.5 901.8C559.8 902.1 563.8 902.7 565.7 903.1C570.2 904.1 573.6 904.7 575.4 904.7C576.2 904.7 578.1 904.8 579.6 904.9C581.1 905.1 584.2 905.2 586.5 905.3C592.3 905.5 593.8 905.6 595.9 905.9C596.9 906.1 599.2 906.2 601.1 906.3C604.7 906.5 620 906.6 625.4 906.4C628.4 906.4 632.1 906 632.5 905.8C632.6 905.7 634.1 905.6 635.8 905.5C637.5 905.4 639.8 905.3 640.8 905.2C641.9 905.1 644.3 904.9 646.2 904.8C652.7 904.5 655.2 904.3 656.9 903.9C657.8 903.7 658.9 903.5 659.3 903.4C659.7 903.4 660.6 903.2 661.3 903C662.8 902.6 664.2 902.5 667.9 902.1C674.1 901.5 674.1 901.5 678.2 900.4C679.2 900.2 680.8 899.9 681.9 899.7C683 899.5 684.4 899.2 684.9 899C685.5 898.8 686.7 898.6 687.7 898.4C688.7 898.3 689.8 898.1 690.1 898C690.5 897.9 691.8 897.7 693.1 897.6C695.3 897.3 696.8 897 698.7 896.3C700.9 895.5 701.4 895.3 702.1 895C702.7 894.7 706.1 893.8 708.2 893.3C708.7 893.2 709.2 893.1 709.4 893C709.6 892.9 710.4 892.7 711.3 892.5C712.8 892.2 714.7 891.4 717.5 889.9C717.7 889.8 718.2 889.7 718.5 889.6C718.8 889.5 719.7 889.1 720.5 888.7C721.3 888.3 722.4 887.8 723.1 887.6C724.5 887.2 726.2 886.3 726.5 885.9C726.6 885.8 726.8 885.7 726.9 885.7C727 885.7 727.5 885.4 728 885.1C728.5 884.8 729 884.5 729.2 884.5C729.4 884.5 730.4 883.8 731.4 883C731.7 882.7 732 882.5 732.1 882.5C732.1 882.5 733.6 881.5 735 880.5C735.8 879.8 736.8 879.2 736.9 879.2C737 879.2 738.2 878.3 738.3 878.1C738.8 877.5 739.4 876.8 740.4 875.7C741.1 875 741.8 874 742.1 873.6C742.3 873.1 742.7 872.5 742.9 872.2C743.5 871.5 744.3 869.3 744.5 868C744.7 866.6 744.7 863.2 744.5 861.3C744.3 859.9 743.7 858.2 743.1 857.5C743 857.4 742.7 856.9 742.4 856.4C741.8 855.4 735.4 848.9 734.2 848.2C733.8 848 733.2 847.6 732.9 847.5C732.3 847.3 730.7 846.2 730.6 846C730.5 845.8 728.4 844.8 727.8 844.6C727.6 844.5 726.7 844.1 725.8 843.7C724.8 843.2 723.6 842.7 723 842.6C721.7 842.3 720.8 841.8 720.1 841.2C719.5 840.6 717.4 839.7 716.4 839.5C715.9 839.5 715.4 839.3 715.1 839C714.4 838.4 713 838 710.3 837.6C708.2 837.3 707.8 837.1 707.8 836.7C707.8 836.5 707.7 836.3 707.6 836.2C707.4 836 707.4 835.9 707.5 835.7C707.8 835.4 711.1 835.4 711.8 835.8C712.5 836.2 713.6 836.4 715.5 836.7C716.3 836.8 717.5 837 718.2 837.1C719 837.2 720.3 837.4 721.1 837.5C722 837.6 723.1 837.8 723.6 837.9C724.2 838 725.3 838.3 726.1 838.4C727 838.6 728.1 838.8 728.7 839C729.9 839.4 732.7 840 735.1 840.5C735.9 840.7 737 841 737.4 841.1C738.9 841.8 740 842.2 741.1 842.4C741.8 842.6 742.7 842.9 743.2 843.1C743.6 843.3 744.3 843.6 744.7 843.7C745.4 844 746.7 844.5 748.8 845.3C749.3 845.5 750 845.8 750.5 846.1C750.9 846.3 751.7 846.6 752.2 846.8C752.9 847.2 755 848.2 756.6 849.1C756.9 849.2 757.8 849.7 758.7 850.1C760.5 851 760.9 851.2 762.2 852.5C762.7 853 763.4 853.7 763.8 853.9C764.7 854.5 764.9 854.7 766.9 856.8C768.4 858.5 769 859.3 769.4 860C769.5 860.2 769.8 860.7 770 861.1C771.1 862.7 771.2 863.5 771.3 867.1C771.4 870.9 771.2 872.7 770.7 873.9C770.2 874.9 769.2 876.5 769 876.5C768.9 876.5 768.7 876.7 768.6 877C768.5 877.2 768 877.8 767.6 878.3C767.1 878.7 766.4 879.5 765.9 880.1C765.1 881.1 763 883 761.6 884.1C761.2 884.4 760.5 884.9 760.1 885.3C759.3 886 756.3 887.5 755.9 887.5C755.7 887.5 755.1 887.8 754.7 888.1C754.3 888.4 753.4 888.8 751.4 889.8C750.5 890.2 749.6 890.7 749.4 890.9C748.9 891.3 746.5 892.3 745.2 892.6C744.1 892.8 741.8 893.7 741.4 894C741.3 894.1 740.9 894.2 740.4 894.4C740 894.5 739.1 894.9 738.4 895.2C737.8 895.6 737.1 895.8 737 895.8C736.8 895.8 736.7 895.9 736.6 896C736.3 896.3 733.5 897.2 731.9 897.5C731.1 897.7 730.1 897.9 729.8 898.1C729.4 898.2 729 898.3 728.9 898.3C728.7 898.3 728.1 898.6 727.5 898.8C726.8 899.1 725.6 899.5 724.7 899.7C723.9 899.9 722.4 900.3 721.5 900.6C719.6 901.3 719.3 901.3 717.2 901.7C715.6 902.1 714.4 902.4 713 902.9C712.5 903.1 711.7 903.3 711.3 903.4C710.9 903.5 710.2 903.8 709.7 904C709.2 904.2 708.1 904.4 707.3 904.5C705.3 904.7 703.9 905 703.2 905.2C702.8 905.3 701.9 905.5 701.1 905.6C700.3 905.7 699.1 906 698.4 906.2C697.8 906.3 696.5 906.5 695.7 906.6C694.8 906.6 693.7 906.8 693.2 906.9C692.8 907.1 691.7 907.3 690.8 907.3C689.8 907.4 687.7 907.8 686.1 908.3C682.1 909.2 681.6 909.3 676.8 909.6C674.6 909.7 671.5 910 669.9 910.1C668.4 910.3 666.4 910.6 665.6 910.6C664.8 910.7 663.3 910.9 662.3 911.1C661.4 911.2 658.9 911.4 656.8 911.5C654.6 911.6 651.8 911.7 650.4 911.8C649 911.9 645.6 912.1 642.8 912.2C636 912.6 630.6 913 628 913.3C625.2 913.6 605.2 913.6 601.8 913.2ZM611.4 899.8C611.3 899.7 611.1 899.7 610.8 899.6C610.3 899.5 609.1 898.4 607.3 896.2C606.5 895.2 605.7 894.3 605.4 894.1C604.2 893.2 600.3 889.4 600.3 889.1C600.3 889 599.2 887.8 597.9 886.4C596.6 885.1 595.5 884 595.5 883.9C595.5 883.8 595.2 883.4 593.9 881.8C593.5 881.4 592.7 880.6 592.1 880.1C591.4 879.5 590.4 878.5 589.8 877.7C589.1 877 587.9 875.6 587.1 874.7C585.2 872.8 584.8 872.3 584 871.4C583.5 870.8 582.7 869.9 579.6 866.5C577.4 864.1 576.6 863.1 576 862.5C575.8 862.2 575 861.4 574.3 860.7C573.6 860 572.9 859.3 572.8 859.2C572.4 858.7 571 857.4 570.3 856.8C570 856.5 569.5 856 569.4 855.8C569.3 855.5 568.5 854.6 567.6 853.7C564.8 850.7 563.5 849.2 563.5 848.9C563.5 848.8 563.4 848.6 563.3 848.5C562.9 848.4 561.7 847.2 560.7 846C560.2 845.4 559.6 844.8 559.4 844.6C558.6 843.9 557.7 843 556.9 842C556 840.8 554.6 839.3 553.7 838.7C551.5 837.1 550.7 836.3 549.9 834.8C549.4 833.9 548.8 833 548.2 832.5C547.7 832 546.9 831.3 546.6 830.9C546.2 830.5 545.3 829.6 544.7 828.8C543.6 827.6 539.8 823.5 539.1 822.9C537 820.8 536.8 820.6 536.5 820C536.4 819.8 536.2 819.5 536.1 819.4C535.2 818.4 533.7 816.7 532.5 815.5C530.7 813.7 528.3 811.2 527.2 809.9C525.6 808.1 524.6 807 522.5 804.9C520.1 802.4 519.7 801.9 517.1 799C516.1 797.9 515.3 796.8 515.2 796.8C515.1 796.7 514.7 796.4 514.3 796.1C513.7 795.6 512.8 794.6 511.9 793.4C511.2 792.3 510.1 791.2 507.9 789.2C506.6 787.9 504.9 786 504.3 785.1C503.8 784.3 502.6 783 501.3 781.9C500.9 781.6 500.3 781 500 780.6C499.3 779.7 497.2 777.4 496 776.2C495.5 775.7 494.8 774.9 494.4 774.4C493.3 773 492.5 772.1 492.5 771.9C492.4 771.6 490.5 769.6 487.8 766.8C486.7 765.7 485.6 764.5 485.2 764C484.8 763.5 484 762.7 483.5 762.1C482.9 761.5 482.5 761 482.5 761C482.5 760.9 482.1 760.4 481.5 759.8C480.6 758.9 479.4 757.6 477.4 755.2C476.8 754.5 476.2 753.8 476 753.7C475.8 753.5 475.6 753.2 475.4 752.9C475.3 752.6 475.1 752.3 475 752.3C475 752.3 474.5 751.8 474.1 751.1C473.2 749.8 469.8 746.3 469 745.9C468.5 745.7 467 743.9 466.1 742.5C465.4 741.4 464 739.7 463.8 739.7C463.7 739.7 463.5 739.3 462.6 737.9C462.4 737.6 461.9 736.9 461.4 736.3C460.9 735.6 460.5 735 460.5 735C460.5 734.9 460 734.2 459.5 733.5C458.9 732.8 458.2 731.8 457.9 731.4C457.7 730.9 457.2 730.3 456.9 729.9C456.6 729.5 456.3 729.2 456.3 729.1C456.3 729 456 728.6 455.7 728.2C455.3 727.8 454.8 727 454.6 726.5C454.4 726 454.1 725.5 454 725.4C453.7 725.2 452.9 723.5 452.4 722.2C452.2 721.5 451.8 720.6 451.6 720.2C450.9 718.9 450.3 717.9 449.9 717.4C449.7 717.2 449.5 716.9 449.5 716.8C449.5 716.8 449.3 716.4 449.1 716.1C448.4 714.9 447.1 711.4 446.6 709.2C446.4 708.7 445.9 707.5 445.5 706.6C444.7 704.9 444.4 704 443.5 700.1C443.2 699 443 697.9 442.9 697.6C442.8 697.4 442.6 696.5 442.4 695.6C442.3 694.8 442 693.7 441.9 693.2C441.8 692.7 441.6 690.7 441.5 688.8C441.3 684.2 441.3 684.4 440.2 678.5C439.7 676.2 439.7 675.7 439.7 672.4C439.7 670.5 439.8 668.6 439.8 668.2C440.8 664.1 441.3 660.6 441.6 656.8C441.8 653.2 442.2 650.8 442.9 648.2C443.1 647.8 443.4 646.5 443.6 645.3C444 643.2 444.2 642.5 445.1 640.5C445.4 639.8 445.7 639.3 445.7 639.2C445.7 639.2 445.8 638.8 446 638.4C446.2 638 446.4 637.2 446.6 636.5C446.8 635.5 447.5 633.5 448.2 632C448.4 631.6 448.5 631.2 448.5 631.1C448.5 630.9 449.7 628.5 449.8 628.4C450.4 628 451.4 626.2 452 624.1C452.4 622.9 452.8 621.8 453 621.6C453.1 621.4 453.5 620.9 453.8 620.4C454.1 620 454.7 619.2 455 618.8C455.4 618.4 455.9 617.6 456.2 617.1C456.5 616.5 456.8 615.9 457 615.7C457.1 615.4 457.5 614.8 457.8 614.1C458.1 613.5 458.8 612.5 459.3 611.9C460.2 610.7 460.8 609.9 461.4 608.9C462.1 607.8 463.6 605.7 464 605.4C464.3 605.2 465.5 603.3 465.5 603.1C465.5 602.9 465.8 602.5 466.9 601.3C467.2 601 467.7 600.4 468.1 599.9C468.5 599.5 469.4 598.4 470.2 597.7C470.9 596.9 471.8 596 472 595.6C472.2 595.3 472.8 594.5 473.3 594C473.8 593.5 474.4 592.9 474.5 592.7C474.7 592.6 475.1 592.1 475.5 591.7C475.9 591.3 476.4 590.9 476.5 590.7C476.7 590.6 477.1 590.2 477.4 589.9C478.1 589.3 478.1 589.4 479.4 587.9C479.9 587.3 480.6 586.7 480.7 586.5C480.9 586.4 481.9 585.4 482.9 584.4C484 583.3 484.9 582.5 484.9 582.5C485 582.5 485.5 582.1 486 581.7C486.9 580.9 488.2 579.9 488.9 579.5C489.1 579.4 489.4 579.2 489.7 579C489.9 578.8 490.5 578.3 491 578C492.3 577.1 492.9 576.6 494.2 575.6C494.8 575.2 495.5 574.7 495.9 574.5C496.2 574.3 496.5 574.1 496.6 574C496.6 573.9 497 573.7 497.3 573.6C497.9 573.3 499 572.6 500.3 571.7C500.5 571.5 501.2 571.1 501.7 570.8C502.9 570 503.4 569.4 503.9 568.2L504.4 567.1L504.5 406.2L504.6 245.2L505.2 244C505.8 242.8 506 242.6 507.2 241.8C508.8 240.7 510.6 239.7 511 239.7C511.2 239.7 512.3 239 513.6 238C513.7 237.9 514.3 237.5 514.9 237.1C515.6 236.7 516.3 236.2 516.5 236.1C516.7 235.9 517.2 235.6 517.5 235.5C517.8 235.3 518.6 234.9 519.1 234.5C519.7 234.1 520.4 233.7 520.8 233.6C521.1 233.4 521.8 233 522.4 232.6C522.9 232.2 523.9 231.5 524.6 231.1C525.2 230.6 525.9 230.2 526.1 230C526.4 229.9 526.7 229.7 526.9 229.5C527.1 229.4 527.4 229.2 527.7 229C528.4 228.3 530.7 226.9 532.1 226.2C532.8 225.8 533.6 225.3 534 225C534.3 224.7 534.8 224.4 535 224.3C535.8 223.9 536.7 223.4 537.2 222.9C537.5 222.7 537.8 222.5 537.8 222.5C537.9 222.5 538.2 222.3 538.5 222.1C538.7 221.9 539.6 221.4 540.3 221C541.1 220.6 542.2 220 542.7 219.6C544.3 218.5 547.5 216.6 548 216.4C548.3 216.3 548.9 215.9 549.5 215.4C550.1 214.9 550.8 214.5 551 214.3C551.2 214.2 551.7 213.9 552 213.7C552.3 213.4 552.9 213 553.3 212.8C554.1 212.4 554.3 212.2 555.8 211.2C556.6 210.6 557.4 210.1 558.8 209.4C561.2 208.2 562.4 207.4 562.6 207.1C562.6 207 563.3 206.5 564 206.1C564.8 205.6 565.4 205.2 565.5 205.1C565.5 205.1 566.3 204.6 567.1 204.1C568 203.6 569.2 202.8 569.8 202.4C570.3 201.9 570.9 201.5 571 201.5C571.1 201.4 571.7 201.1 572.3 200.7C572.8 200.4 573.5 199.9 573.8 199.8C575.7 198.6 580 195.7 582 194.3C582.5 194 583 193.7 583.1 193.7C583.2 193.7 583.6 193.4 584 193.1C584.7 192.6 585.1 192.4 586.7 191.6C587.1 191.3 587.5 191.1 587.7 191C587.8 190.8 588.2 190.6 588.5 190.4C588.8 190.3 589.5 189.8 590 189.3C591 188.5 592.2 187.8 593.2 187.5C593.6 187.4 594.1 187.2 594.2 187C594.4 186.8 594.8 186.6 595 186.5C595.2 186.4 595.6 186.1 595.8 186C597 184.8 598.9 183.5 599.2 183.5C599.2 183.5 599.4 183.4 599.6 183.2C599.7 183 600.5 182.4 601.2 181.9C602 181.4 603 180.7 603.5 180.3C604.8 179.4 606.4 178.7 607.4 178.6C608.5 178.4 609.3 178.9 609.6 179.9C609.9 180.8 609.8 171.4 609.8 320.9C609.7 427 609.7 453.3 609.5 454.2C609.3 455.5 608.3 457 607.2 457.8C605.6 458.9 605.2 459.1 604.4 459.6C603.5 460 603.5 460 602 461C599.8 462.4 598.8 463 598 463.6C596.6 464.6 596.1 464.9 593.3 466.4C591.9 467.2 590.7 467.9 589.8 468.6C589.4 468.9 588.8 469.3 588.4 469.5C587.6 470 586.9 470.5 586.3 470.9C586.1 471.1 585.6 471.4 585.3 471.6C585 471.7 584.6 471.9 584.6 472C584.5 472.1 584.1 472.3 583.6 472.6C582.2 473.3 581.8 473.5 578.9 475.8C578.4 476.2 577.9 476.5 577.9 476.5C577.6 476.5 573.8 478.7 573.5 479.1C573.3 479.3 573.1 479.5 573 479.5C572.9 479.5 572.5 479.8 572 480.1C571.5 480.4 571 480.7 570.9 480.7C570.8 480.7 570.6 480.8 570.5 480.9C570.4 481.1 569.9 481.4 569.4 481.6C568 482.4 565.5 483.8 565.5 484C565.5 484.1 563.3 485.5 563 485.5C562.8 485.5 560.8 486.7 560.6 486.9C560.6 487.1 560 487.5 559.3 487.9C558 488.8 556.8 490.1 556 491.3C555.6 492 555.6 492.3 555.5 494.4C555.4 497 555.6 526.8 555.8 544.5C555.8 550.6 555.9 565 555.9 576.4C555.8 598.8 555.8 598.9 555 599.8C554.4 600.4 553.3 601.1 552.6 601.3C551.7 601.6 549.5 602.7 549.5 602.8C549.5 602.9 548.9 603.4 548.1 603.8C547.4 604.3 546.6 604.9 546.4 605C546.1 605.3 543.2 606.5 542.9 606.5C542.5 606.5 541.5 607.2 540.4 608.2C539.9 608.8 539 609.4 538.6 609.7C538.1 609.9 537.6 610.3 537.4 610.4C537.2 610.5 536.7 610.8 536.2 611.1C534.6 612.1 533.5 612.9 533.5 613C533.5 613.1 533.3 613.3 533 613.5C532.5 613.8 531.7 614.4 528.1 617.6C527.6 618 527 618.5 526.9 618.5C526.6 618.6 524.5 620.7 524.5 620.8C524.5 620.9 524.1 621.3 523.5 621.7C523 622.1 522.2 622.8 521.8 623.1C521.3 623.5 520.6 624.1 520 624.6C519.5 625.1 519 625.6 518.9 625.6C518.7 625.7 518.5 626.1 517.7 627.3C516.9 628.5 514.6 631 513.3 632.1C512.9 632.4 512.6 632.7 512.6 632.9C512.3 633.7 510.4 636.1 508.7 637.8C508.2 638.2 507.7 638.9 507.4 639.3C507.2 639.7 506.8 640.4 506.5 640.8C505.4 642.2 503.9 644.4 503.6 645C503.5 645.2 503.3 645.6 503.1 645.9C502.9 646.2 502.4 647.1 502 648C501.6 648.9 501.1 649.8 500.9 650.1C500.7 650.4 500.4 650.8 500.3 651C500.2 651.2 500 651.7 499.8 651.9C499.6 652.2 499.3 652.7 499.1 652.9C499 653.2 498.8 653.5 498.7 653.7C498.6 653.8 498.2 654.6 497.8 655.4C497.2 656.7 496.7 657.8 495.7 659.7C495.6 659.9 495.5 660.2 495.5 660.3C495.5 660.4 495.4 660.6 495.3 660.7C494.4 661.3 493.9 662.6 493.6 664.3C493.4 665.3 493.2 666.2 493.1 666.4C492.9 666.8 492 669.4 491.6 670.9C490.7 674.1 490.3 675.3 489.9 675.9C489.4 676.8 489.1 678.1 488.7 681.1C488.5 682.5 488.1 684.8 487.9 686.3C487.1 692.1 487 692.9 487 696C487 698.4 487.1 699.3 487.3 700.5C487.9 703.1 488.3 705.9 488.5 707.8C488.7 710.4 489.6 713.3 491.6 717.5C492.5 719.2 492.6 719.3 493 719.3C493.3 719.3 493.7 719.4 493.9 719.5C494.1 719.6 494.4 719.6 494.5 719.5C494.8 719.3 495.3 717.9 495.5 717C495.8 715.6 496.5 709.8 496.7 707.7C496.9 705.1 497.5 701.4 498 700.5C498.4 699.5 498.9 697.2 499.2 695.4C499.5 693 499.7 691.9 500 691.5C500.6 690.5 501.2 689.2 501.5 688C501.7 687.3 502 686.4 502.2 686C502.4 685.7 502.5 685.3 502.5 685.2C502.5 685.1 502.7 684.7 503.7 682.6C504 681.9 504.3 681 504.5 680.4C504.9 679.2 505.4 677.8 506 676.8C506.3 676.4 506.5 675.8 506.7 675.5C506.8 675.2 507.1 674.5 507.3 674C507.5 673.6 507.7 673.1 507.7 673.1C507.7 673 508.3 672.2 509 671.4C509.7 670.6 510.8 668.9 511.3 667.7C511.5 667.3 511.9 666.5 512.2 665.9C512.4 665.4 512.7 664.9 512.7 664.7C512.7 664.6 512.8 664.4 512.9 664.3C513.1 664.2 513.5 663.7 513.9 663.1C514.2 662.6 514.9 661.7 515.3 661.2C515.8 660.7 516.3 659.9 516.5 659.5C516.9 658.5 518.4 656.2 519.1 655.6C519.3 655.3 520.2 654.4 521 653.5C521.8 652.6 522.8 651.6 523.2 651.2C524.2 650.3 524.1 650.3 525 649.2C525.4 648.7 526.6 647.3 527.7 646.2C528.7 645.1 529.8 643.9 530.1 643.6C531.4 642 535.6 638 537.1 637C537.6 636.6 538.5 635.9 539.1 635.4C539.7 635 540.6 634.2 541.2 633.8C541.7 633.4 542.2 633 542.2 633C542.2 632.8 543.1 632.1 544 631.7C544.8 631.2 546.4 630 546.7 629.8C546.8 629.6 547 629.5 547.1 629.5C547.2 629.5 547.4 629.4 547.4 629.3C547.5 629.1 549.7 627.5 551 626.8C551.1 626.7 551.6 626.3 552 626C552.4 625.7 552.9 625.5 553 625.5C553.1 625.5 553.4 625.3 553.6 625.1C554.2 624.5 555.1 624.1 556.3 623.7C556.8 623.5 557.5 623.1 557.9 622.8C558.3 622.6 558.7 622.3 558.8 622.3C558.9 622.3 559.1 622.2 559.4 622C559.6 621.9 560.1 621.6 560.5 621.4C560.9 621.2 561.8 620.8 562.5 620.4C563.8 619.7 566.7 618.5 567.2 618.5C567.3 618.5 567.7 618.3 568 618.1C568.3 617.9 568.9 617.6 569.2 617.5C569.5 617.4 570 617.2 570.2 617C570.8 616.5 572.6 615.9 574.7 615.5C575.6 615.3 576.6 615 577 614.9C577.3 614.7 578 614.5 578.4 614.4C578.9 614.2 579.3 614.1 579.4 614C579.5 613.9 579.9 613.8 580.2 613.7C580.6 613.6 581.3 613.2 581.8 613C583.6 612.1 586.3 611.5 591.8 610.9C595.9 610.5 597.4 610.3 600.6 610.2C602.3 610.1 603.7 610 603.8 609.9C603.9 609.9 605.4 609.7 607.3 609.6C610.7 609.3 614.3 609.3 616.8 609.7C617.4 609.8 619.2 609.9 620.8 610C627.8 610.3 635.7 611.2 638.8 611.9C639.7 612.2 640.7 612.4 641.1 612.5C641.5 612.6 642.2 612.8 642.8 613.1C643.3 613.3 643.8 613.5 643.9 613.5C644 613.5 644.6 613.7 645.3 614C646 614.3 646.8 614.5 647 614.5C647.2 614.5 647.7 614.7 648.1 614.9C648.4 615.1 649.2 615.4 649.8 615.5C651.3 615.8 653.3 616.5 654.2 617C654.6 617.3 655.1 617.5 655.2 617.5C655.3 617.5 655.8 617.7 656.3 617.9C656.8 618.1 657.6 618.4 658.2 618.6C658.7 618.7 659.3 618.9 659.5 619.1C659.7 619.2 660.5 619.5 661.3 619.8C662 620.1 663.1 620.6 663.7 621C664.3 621.4 664.9 621.7 664.9 621.7C665 621.7 665.7 622.1 666.4 622.6C667.2 623.1 667.9 623.5 668 623.5C668.1 623.5 668.8 623.8 669.6 624.2C670.4 624.5 671 624.8 671.1 624.8C671.1 624.8 671.5 625.1 671.9 625.3C672.3 625.6 672.8 625.9 673 626C673.6 626.3 674.1 626.6 674.5 626.9C674.9 627.3 676.7 628.5 676.9 628.5C677 628.5 677.3 628.7 677.6 628.9C678.5 629.7 680.4 631.1 680.9 631.4C681.2 631.6 681.9 632.1 682.4 632.5C683.5 633.4 684.1 633.8 684.8 634.2C685 634.4 685.6 634.9 685.9 635.3C686.6 636 687.6 636.7 688.8 637.5C689.6 638.1 691.8 640 692.4 640.6C693 641.4 694.7 643 695.5 643.5C695.9 643.9 696.3 644.2 696.3 644.3C696.3 644.4 696.6 644.7 697 645.1C697.3 645.5 697.8 646.1 698.1 646.5C698.5 647.1 700.4 649.1 701.2 649.8C701.7 650.2 702.1 650.8 702.4 651.3C702.5 651.6 703.3 652.6 704 653.5C704.8 654.4 705.7 655.6 706.1 656.1C706.4 656.6 707 657.3 707.4 657.7C707.7 658.1 708.2 658.6 708.4 658.9C708.6 659.2 709.1 659.9 709.5 660.5C710.4 661.8 711.9 664.2 712.3 665.1C712.5 665.4 713 666.2 713.4 666.8C713.8 667.3 714.3 668.1 714.5 668.4C714.7 668.8 715 669.2 715.1 669.3C715.3 669.6 716.7 672.8 716.7 673.1C716.7 673.2 717 673.9 717.4 674.5C717.8 675.2 718.3 676 718.4 676.3C718.5 676.6 718.9 677.1 719.1 677.4C719.3 677.6 719.5 678 719.5 678.1C719.5 678.3 719.8 679 720.1 679.6C720.4 680.3 720.7 680.9 720.7 681.1C720.7 681.2 720.8 681.6 720.9 681.9C721.1 682.2 721.3 683.2 721.4 684C721.5 684.9 721.8 686 722 686.4C722.2 686.8 722.3 687.2 722.3 687.2C722.3 687.3 722.5 687.6 722.7 688C723 688.3 723.3 689.1 723.4 689.7C723.7 690.8 724.2 692.2 725 693.8C725.5 694.8 725.9 696.3 726.6 699.5C726.8 700.5 727.2 702 727.5 702.9C727.8 703.8 728.1 705.1 728.3 705.8C728.4 706.4 728.6 707.3 728.7 707.7C728.8 708.1 728.9 710.4 728.9 712.9C729 719.2 729.2 720.3 730.2 720.9C730.9 721.3 732.4 720.1 733.3 718.5C733.6 717.9 733.9 717.5 734 717.4C734.1 717.4 734.3 716.9 734.4 716.4C734.6 715.8 734.9 715.1 735 714.8C735.2 714.4 735.6 713.3 736 712.3C736.4 711.3 736.8 710.2 737.1 709.8C737.3 709.5 737.5 709.1 737.5 709C737.5 708.8 737.6 708.6 737.8 708.3C738.2 707.7 739.5 705.1 739.5 704.9C739.5 704.5 740.7 702.1 741 701.8C741.4 701.3 742.2 699.2 742.5 698C742.7 697.1 743.6 694.2 744.1 693.2C744.2 692.8 744.4 692.2 744.4 691.8C744.6 690.6 745.4 686.9 746 685C747 681.7 747.4 680.1 747.5 678.5C747.6 677.6 747.7 676.8 747.8 676.7C748.3 675.3 748.5 655.4 748.2 634.1C748.1 627.9 748 619.3 747.9 615C747.9 610.8 747.8 607.2 747.8 607.2C747.7 607.1 747.6 589.4 747.7 581.7L747.7 578.9L748.1 578.3C748.4 578 748.7 577.8 749.1 577.8C750.1 577.9 752.2 579.3 753.8 581.1C754.1 581.4 755.8 583.1 757.5 584.9C759.2 586.6 760.8 588.2 761 588.4C761.2 588.7 761.6 589.2 761.9 589.6C762.2 589.9 762.9 590.9 763.5 591.6C764.1 592.3 765 593.3 765.5 593.8C765.9 594.3 766.4 594.9 766.5 595.1C767 595.8 767.7 596.9 768.1 597.4C768.9 598.4 769.3 598.9 769.3 599.1C769.3 599.1 770 599.9 770.7 600.7C771.5 601.5 772.3 602.5 772.5 602.8C772.7 603.2 773.3 604 773.7 604.7C774.1 605.3 774.5 605.9 774.5 606C774.5 606.1 774.7 606.4 774.9 606.6C775.3 607.1 775.7 607.7 776.2 609C776.4 609.2 776.7 609.7 777 610C777.4 610.5 777.9 611.2 778.2 611.7C779 613.1 779.4 613.9 779.6 614.5C779.7 615 780 615.6 780.3 615.9C780.5 616.3 780.7 616.6 780.7 616.7C780.7 617 781.7 619.4 781.9 619.7C782 619.8 782.3 620.2 782.4 620.5C782.6 620.8 782.9 621.3 783.1 621.5C783.3 621.7 783.7 622.6 784 623.5C784.3 624.4 784.7 625.5 785 626C785.4 626.9 786.3 629.4 786.7 630.8C787 632.1 787.7 633.9 788 634.2C788.8 635.1 789.3 636.7 789.5 638.9C789.6 640 789.8 641.6 790 642.3C790.2 643.1 790.4 644.1 790.4 644.6C790.5 645.1 790.7 645.9 790.9 646.3C791.2 646.8 791.4 647.4 791.4 648.1C791.6 650.1 791.7 650.8 792.1 652.6C792.3 653.5 792.5 654.9 792.6 655.6C792.6 656.3 792.8 657.5 792.8 658.2C793.2 660.7 792.5 669.8 791.8 672.6C791.8 672.9 791.7 673.7 791.7 674.3C791.7 675.9 791.2 678.5 790.8 679.5C790.2 681.2 789.9 682.5 789.6 684.9C789.4 686.2 789.2 687.4 789.1 687.6C788.8 688.7 788.5 689.2 787.6 690.9C786.8 692.6 786.7 693 786.5 694.3C786.4 695.1 786.3 696 786.2 696.2C786.1 696.4 785.8 697 785.7 697.5C785.5 698.1 785.2 698.8 785 699.1C784.8 699.5 784.6 700 784.5 700.4C784.3 700.9 783.7 702.2 782.3 704.8C781.6 706 781.3 706.7 780.4 709.5C779.6 712 778.7 713.7 777.6 715.2C777.2 715.8 776.4 717.1 775.9 718.2C775.4 719.2 774.6 720.7 774.1 721.5C773.7 722.2 773.3 722.9 773.3 723C773.3 723.1 772.7 724 771.6 725.6C771.1 726.2 770.6 727.1 770.4 727.5C770.3 727.8 770 728.3 769.8 728.4C769.6 728.6 769.5 728.8 769.5 728.9C769.5 729 769.1 729.5 768.5 730C767 731.6 766.7 731.9 766.4 732.6C766.2 732.9 765.8 733.5 765.5 733.9C765.3 734.2 764.7 734.9 764.3 735.5C763.9 736.1 763.2 737 762.8 737.5C762.3 738 761.8 738.6 761.7 738.8C760.9 740 759.1 742.4 758.8 742.5C758.6 742.6 758.5 742.8 758.5 742.9C758.5 743 758.1 743.5 757.6 744C755.1 746.7 753.5 748.7 753.5 748.9C753.5 749 753.1 749.4 752.6 750C752.1 750.5 751.7 751 751.7 751C751.7 751.1 751.4 751.4 751.1 751.7C750.8 752 750.3 752.6 750 753.1C749.7 753.5 749.3 754 749.1 754.2C748.9 754.5 748.6 754.9 748.4 755.1C747.5 756.6 747 757.1 745.8 758.3C744.5 759.6 742.5 761.9 742.5 762.1C742.5 762.3 741.5 763.5 740.5 764.6C740 765.1 739 766.2 738.4 766.9C737.8 767.6 737.1 768.3 736.9 768.5C736.7 768.6 736.5 768.8 736.4 769C736.4 769.1 735.9 769.7 735.5 770.2C735 770.7 734.2 771.6 733.8 772.3C733.4 772.9 732.7 773.8 732.3 774.1C732 774.5 731.6 775 731.5 775.2C731.2 775.8 730.2 776.9 728.8 778.4C728 779.2 727.2 780.1 727 780.4C726.5 781.2 725.6 782.1 725 782.4C724.7 782.6 724.5 782.7 724.5 782.8C724.5 782.9 723.8 783.7 723 784.5C721.3 786.2 720.7 786.9 720.7 787.2C720.7 787.2 720.3 787.6 719.8 788C718.8 788.9 716.5 791.3 716.4 791.8C716.2 792.4 714 794.7 712.5 796.1C711.9 796.5 711.5 797.1 710.5 798.5C710.2 799 709.7 799.4 709.4 799.6C708.4 800.2 703.1 805.6 702.3 806.9C702.1 807.3 701.7 807.8 701.5 808C699.1 810.3 698.3 811.2 697.5 812C697 812.6 696.3 813.3 695.9 813.7C694 815.5 692.7 816.9 692.7 817C692.7 817.1 691.7 818.1 690.6 819.3C689.5 820.4 688.2 821.7 687.8 822.3C687 823.4 686.5 823.9 684.6 825.4C683.4 826.3 682.6 827.3 681.5 828.9C681.3 829.2 680.8 829.6 680.5 829.9C679.6 830.5 678.5 831.6 677.5 832.8C677 833.3 676.4 834.1 676 834.5C675.7 834.9 674.9 835.8 674.2 836.4C673.6 837 672.5 838.1 671.8 838.8C668.7 842 667.5 843.1 667 843.8C666.7 844.1 666 844.8 665.6 845.2C665.1 845.6 664.3 846.5 663.7 847.2C663.1 847.9 662.1 849 661.4 849.7C660.8 850.4 659.8 851.4 659.3 852.1C658.5 853 655.4 856.3 654.3 857.3C653.2 858.3 652.4 859.2 651.7 860.1C651.2 860.7 650.5 861.4 650.2 861.6C649.9 861.8 649.4 862.3 649.1 862.6C648.8 862.9 648 863.7 647.3 864.5C644.2 867.7 640.5 871.6 640.5 871.8C640.5 871.9 639.8 872.8 639.4 873.4C639.3 873.5 638.5 874.3 637.6 875.1C636.7 875.9 635.9 876.7 635.8 876.8C635.7 876.9 634.4 878.2 633 879.7C630 882.7 627.7 885.2 626.8 886.5C626.4 886.9 626 887.4 625.8 887.4C625.4 887.5 620.5 892.4 619.4 893.8C618 895.5 617.3 896.2 616.8 896.5C616.6 896.7 615.8 897.4 615 898.1C613.4 899.7 612.4 900.1 611.4 899.8ZM613.9 848.8C614.4 848.4 615 847.9 615.3 847.6C615.6 847.2 616.3 846.6 616.8 846.1C617.7 845.4 618.2 844.7 619.2 843.4C619.7 842.7 622.6 839.7 624 838.5C625.2 837.4 625.1 837.6 626.9 835.5C629.3 832.6 629.8 831.9 630.1 831.5C630.4 831.1 630.7 830.8 631.7 829.9C632 829.6 632.4 829.1 632.6 828.8C633 828.2 634.3 826.8 635.1 826.1C635.7 825.6 639.1 822.1 639.5 821.5C639.7 821.2 640.6 820.1 641.5 819C642.4 817.9 643.2 816.9 643.4 816.7C643.5 816.5 644.5 815.4 645.5 814.4C646.6 813.3 647.7 812 648 811.5C648.5 810.6 649.3 809.7 650.5 808.7C650.9 808.5 651.3 808 651.6 807.6C652.3 806.5 655.9 802.6 659.3 799.3C659.7 798.9 660.5 797.9 660.5 797.8C660.5 797.6 663.2 794.4 665 792.7C665.2 792.4 665.5 792.1 665.6 792C666.3 790.9 666.9 790.1 668.9 788.1C670.1 786.9 671.3 785.5 671.6 785.2C672.1 784.4 673.7 782.8 675 781.8C675.6 781.4 676.3 780.7 676.6 780.2C676.9 779.8 677.4 779.1 677.8 778.7C678.1 778.3 678.6 777.7 678.9 777.3C679.2 776.9 679.6 776.4 679.9 776.1C680.2 775.7 680.5 775.3 680.7 775C680.8 774.7 681.2 774.1 681.6 773.5C682 773 682.4 772.3 682.6 772C682.7 771.7 683.1 771 683.5 770.4C683.9 769.9 684.6 768.6 685.1 767.6C686 765.7 686.2 765.3 687 764.1C687.4 763.5 687.8 762.6 688.7 760.7C689.1 759.8 689.8 758.6 690.1 758.3C690.5 757.9 691.1 756.4 691.4 755.1C691.6 754.4 691.9 753.4 692.1 752.8C692.3 752.1 692.6 750.8 692.7 749.9C692.8 749 692.9 747.9 693.1 747.4C693.2 747 693.4 746.2 693.5 745.8C693.6 745.4 693.8 744.7 694.1 744.2C694.7 742.7 695.1 740.4 695.5 736.8C695.7 735 695.9 733 696.1 732.3C696.4 730.7 696.5 727.8 696.1 726.1C695.8 724.5 695.3 721.1 695.3 719.7C695.3 718.6 694.8 714.5 694.5 713.4C694.4 713.1 694.2 712.6 694 712.3C693.9 712.1 693.6 711.4 693.5 710.7C693.3 710 693.1 709 692.9 708.4C692.8 707.9 692.5 706.3 692.3 705C692.1 703.2 691.9 702.4 691.5 701.7C691.3 701.2 690.7 700 690.2 699C689.7 698 689.2 697.1 689.1 696.8C689 696.6 688.6 695.9 688.2 695.3C687.8 694.6 687.5 693.8 687.4 693.4C687.3 692.8 686.6 691.5 685.9 690.6C685.7 690.4 685.5 690.1 685.5 690C685.5 689.7 684 686.7 683.8 686.5C683.6 686.4 683.5 686.2 683.5 686.1C683.5 686 683.3 685.7 683.1 685.6C683 685.4 682.6 684.9 682.4 684.5C682.2 684.1 681.5 683.2 680.9 682.5C679.4 681 677.8 679 677 677.8C676.7 677.3 676.2 676.8 676 676.5C675.8 676.3 674.9 675.3 674.1 674.4C673.4 673.5 672.2 672.3 671.6 671.7C671 671.1 669.9 670.1 669.3 669.5C668.7 668.9 668 668.2 667.7 668C667.4 667.8 666.8 667.3 666.4 666.9C666 666.6 665.4 666.2 665.2 666C664.9 665.9 664.3 665.3 663.7 664.8C663.1 664.3 662.5 663.7 662.2 663.5C662 663.4 661.6 663.1 661.5 663C661.4 662.8 660.7 662.4 660 662C659.3 661.6 658.6 661.2 658.5 661C657.9 660.6 656.4 659.7 654.9 658.9C654 658.5 653.3 658.1 653.2 658C653.2 657.9 652.8 657.6 652.4 657.4C651.9 657.2 651.1 656.7 650.5 656.4C649.9 656 649.1 655.6 648.6 655.4C648.2 655.3 647.8 655 647.7 654.9C647.6 654.8 647.2 654.6 646.9 654.6C646.7 654.5 645.9 654.3 645.2 654C644.6 653.8 643.7 653.4 643.2 653.3C641.1 652.5 640.6 652.3 640 651.9C639.7 651.7 639.4 651.5 639.3 651.5C639.2 651.5 638.7 651.3 638.2 651.1C637.6 650.8 636.7 650.6 635.8 650.5C634.9 650.4 633.7 650.1 633 649.9C632.3 649.7 631.4 649.5 631 649.4C630.6 649.4 629.6 649.2 628.8 649C628.1 648.8 626.1 648.6 624.6 648.5C623 648.4 620.6 648.2 619.2 648C615.9 647.6 610.4 647.5 606.5 647.9C605 648.1 602.7 648.2 601.3 648.3C596.7 648.6 595.4 648.8 591.8 649.8C591.3 649.9 590.2 650.2 589.3 650.3C588.5 650.5 587.2 650.9 586.5 651.2C585.8 651.4 585.1 651.7 585 651.7C584.9 651.7 584.4 651.9 584.1 652.1C583.7 652.3 583.3 652.5 583.1 652.5C582.9 652.5 582.4 652.7 581.9 652.9C581.5 653.1 580.7 653.4 580.3 653.5C579.5 653.7 577.3 654.5 576.8 654.8C576.7 654.9 576.2 655.2 575.7 655.4C574.2 656.1 572.8 656.9 572.5 657.1C572.4 657.2 571.8 657.5 571.4 657.8C570.1 658.5 569.9 658.6 569.5 658.9C568.9 659.4 567.5 660.2 566.8 660.5C566.4 660.6 565.8 660.9 565.6 661.1C565.3 661.3 565 661.5 564.9 661.5C564.8 661.5 564.3 661.9 563.8 662.4C562.5 663.6 559.2 666.3 559 666.3C558.9 666.3 558.3 666.8 557.5 667.5C556.8 668.1 555.9 668.8 555.5 669.1C553.4 670.8 550 674.1 549.6 674.9C549.4 675.2 548.7 676.1 548 677C547.3 677.8 546.7 678.7 546.6 678.9C546.5 679.1 546 679.6 545.5 680.2C545 680.7 544.3 681.5 544 682C543.7 682.5 543.2 683.1 543 683.3C542.7 683.5 542.5 683.8 542.5 683.9C542.5 684.1 541.8 685.2 541.1 686.1C540.7 686.5 540.2 687.4 539.8 688.1C539.4 688.8 539 689.5 538.9 689.7C537.1 691.8 536.6 692.7 535.4 697.1C535.3 697.6 535 698.3 534.9 698.5C534.4 699.4 531.8 705 531.2 706.4C531 706.9 530.7 708.2 530.5 709.5C529.9 714.1 529.3 717.3 529 718.1C528.8 718.5 528.6 719.5 528.4 720.2C528.3 721 528.1 722 527.9 722.6C527.6 724.1 527.6 734.1 527.9 737C528.2 739.6 528.8 743 529.1 744C529.2 744.4 529.5 746.1 529.8 747.8C530.8 753.8 531.3 755.8 531.9 756.5C532 756.6 532.3 757.1 532.4 757.4C532.6 757.8 533 758.6 533.3 759.3C534.9 762.3 535.3 763.3 535.5 764.2C535.6 764.9 536 765.7 536.4 766.5C536.8 767.1 537.3 768 537.5 768.4C538 769.4 538.7 770.4 538.9 770.6C539.2 770.8 540.3 772.6 540.5 773.1C540.6 773.3 541 773.8 541.4 774.3C541.8 774.8 542.4 775.5 542.6 775.9C542.8 776.2 543.1 776.5 543.2 776.5C543.2 776.5 543.4 776.6 543.4 776.8C543.5 777 544 777.6 544.5 778.2C545.1 778.8 545.9 779.6 546.2 780.1C546.5 780.5 547.4 781.5 548.1 782.3C548.9 783.1 549.5 783.8 549.5 783.8C549.5 784.3 552.2 787.1 552.9 787.4C553.5 787.7 555 789.2 555.9 790.7C557 792.2 558 793.4 560.3 795.4C561 796 562.4 797.5 563.4 798.5C564.4 799.6 565.2 800.5 565.3 800.5C565.4 800.6 569.1 804.8 569.8 805.8C570 806.1 570.8 806.9 571.6 807.5C573.4 809.1 573.1 808.8 575.9 811.8C579.4 815.4 580.6 816.7 581.8 818.2C582.4 818.9 583 819.5 583 819.5C583.2 819.5 585.3 821.7 585.6 822.1C586.1 823 586.7 823.8 587.8 824.8C590.4 827.4 593.6 830.7 594.1 831.3C594.6 832 594.6 832 597.4 834.8C598.4 835.9 599.4 837 599.5 837.2C599.7 837.5 600.5 838.4 601.4 839.3C602.2 840.1 603.2 841.1 603.5 841.4C603.9 841.8 604.9 842.8 605.8 843.7C606.8 844.5 608.1 845.9 608.8 846.8C611 849.5 612.2 849.9 613.9 848.8Z"/><path fill="#F6F4EF" fill-rule="evenodd" d="M303.8 1090.6C299.7 1090.5 296.5 1090.2 296 1089.9C295.9 1089.9 295 1089.7 294 1089.5C293 1089.3 291.6 1089 290.9 1088.8C290.3 1088.7 289.2 1088.4 288.4 1088.3C287.7 1088.2 286.6 1088 285.9 1087.8C285.3 1087.6 284 1087.3 283.2 1087C282.3 1086.7 281 1086.4 280.3 1086.3C278.8 1086.1 276.3 1085.4 275.5 1085C274.8 1084.6 271.3 1083.5 270.9 1083.5C270.8 1083.5 270.4 1083.4 270.1 1083.2C268.4 1082.3 268 1080.6 269.3 1079.3C270 1078.7 270.5 1078.5 272 1078.5C274.7 1078.5 278.9 1078 281.1 1077.5C281.8 1077.3 283.2 1077 284.2 1076.8C285.3 1076.5 286.4 1076.2 286.7 1076.1C287.1 1075.9 288.1 1075.7 288.9 1075.6C289.7 1075.5 290.8 1075.3 291.3 1075.1C293.4 1074.4 294.1 1074.2 296 1073.7C297.5 1073.4 298.2 1073.2 299.1 1072.6C299.7 1072.2 300.4 1071.8 300.7 1071.7C300.9 1071.5 301.3 1071.2 301.6 1071.1C301.8 1070.9 302.4 1070.6 302.9 1070.4C304.3 1069.9 307.7 1068.2 308.9 1067.3C309.3 1067.1 310 1066.6 310.5 1066.4C311 1066.1 312.1 1065.4 313 1064.9C313.8 1064.4 314.8 1063.8 315.2 1063.6C315.8 1063.2 317.8 1061.7 318.5 1060.9C318.7 1060.7 319 1060.5 319.1 1060.5C319.1 1060.5 319.9 1059.8 320.8 1058.9C321.7 1057.9 322.8 1057 323.4 1056.7C323.9 1056.4 324.4 1056 324.6 1055.8C324.8 1055.6 325 1055.5 325.1 1055.5C325.2 1055.5 325.4 1055.3 325.5 1055.1C325.9 1054.6 328.8 1051.7 330.2 1050.6C330.8 1050.1 331.5 1049.4 331.7 1049C332 1048.3 332.6 1047.7 335.3 1045.1C335.9 1044.5 336.6 1043.9 336.8 1043.7C336.9 1043.5 337.2 1043.2 337.2 1043.1C337.3 1043.1 337.6 1042.8 337.8 1042.6C338.2 1042.1 339.2 1040.5 339.6 1039.8C339.9 1039 339.9 1037 339.6 1034.1C339.4 1031.9 339.2 1031.3 338.1 1029.2C337.9 1028.9 337.7 1028.5 337.7 1028.3C337.1 1027.1 336.7 1026.3 336.5 1025.6C336.3 1025.1 335.9 1024.2 335.5 1023.6C335.2 1022.9 334.7 1022 334.4 1021.6C334.2 1021.1 333.9 1020.6 333.8 1020.5C333.6 1020.4 333.5 1020.2 333.5 1020.1C333.5 1020 333.3 1019.7 333.1 1019.5C332.9 1019.3 332.7 1019 332.7 1019C332.7 1018.9 332.4 1018.5 332.2 1018C331.9 1017.6 331.6 1016.9 331.5 1016.5C331.2 1015.6 330.2 1013.8 329.8 1013.5C329.6 1013.4 329.5 1013.2 329.5 1013.1C329.5 1013 329.3 1012.7 329.2 1012.6C328.8 1012.3 327.3 1010.4 327.3 1010.1C327.3 1010 327.2 1009.8 327.1 1009.7C326.9 1009.6 326.7 1009.1 326.5 1008.7C326.3 1008.3 326.1 1007.8 325.9 1007.7C325.8 1007.5 325.7 1007.2 325.6 1007C325.4 1006.5 324.5 1005.3 323.3 1003.9C321.9 1002.4 321.8 1002.3 321.2 1001.4C320.9 1001 320.4 1000.3 320.1 1000C318.7 998.6 318.1 996.4 318.1 993.6C318.1 991.6 318.6 989.1 319.3 987.8C319.5 987.3 320.1 986.5 320.5 986C321 985.5 321.3 985 321.3 984.9C321.3 984.7 322.3 983.5 323 982.7C323.3 982.5 323.8 982 324.2 981.7C324.7 981.3 325.4 980.7 325.8 980.3C326.1 980 326.9 979.4 327.4 979.1C329 978.2 330.2 978.3 332 979.2C332.8 979.5 333.6 980 333.9 980.2C336.6 982.2 338.2 983.7 340.1 986.2C340.7 986.9 341.7 988 342.3 988.7C343 989.4 343.5 990 343.5 990.1C343.5 990.2 343.6 990.4 343.8 990.6C344 990.7 344.3 991.2 344.5 991.6C344.7 992.1 345 992.6 345.2 992.8C345.3 993.1 345.9 993.9 346.4 994.8C347 995.6 347.9 996.8 348.4 997.4C349.2 998.5 349.5 998.9 349.9 1000.4C350.2 1001.3 350.5 1002.1 350.5 1002.2C350.5 1002.5 351.7 1005 352 1005.5C352.2 1005.7 352.4 1006.2 352.4 1006.6C352.6 1007.3 353.1 1008.4 353.3 1008.6C353.4 1008.6 353.5 1008.8 353.5 1009C353.5 1009.2 353.7 1009.7 353.9 1010.1C354.3 1010.9 354.9 1013.3 355.6 1016.2C355.7 1016.9 356.1 1018.3 356.5 1019.3L357.2 1021.2L357.4 1025.7C357.4 1028.1 357.5 1031.9 357.4 1034.1C357.3 1037.8 357.3 1038.3 356.8 1040.1C356.6 1041.3 356.3 1042.3 356.2 1042.5C356 1042.9 355.1 1046 354.7 1048.1C354.5 1048.9 354.2 1049.8 354 1050.1C353.9 1050.5 353.7 1051.1 353.6 1051.5C353.5 1051.9 353.3 1052.6 353 1053C352.8 1053.4 352.3 1054.4 351.9 1055.3C351.5 1056.2 351.1 1057 350.9 1057.2C350.8 1057.5 350.6 1058.1 350.4 1058.6C349.8 1060.9 349.4 1061.8 348.1 1063.3C347.4 1064.1 346.7 1065.1 346.5 1065.5C346 1066.5 345.5 1067.3 344.9 1068.1C344.6 1068.5 344.3 1068.9 344.3 1069C344.2 1069.1 343.9 1069.5 343.7 1069.9C343.4 1070.3 343 1070.9 342.7 1071.2C342.5 1071.5 341.4 1072.7 340.3 1073.9C339.2 1075 337.9 1076.3 337.6 1076.7C336.8 1077.6 333.6 1080.4 333.3 1080.5C333.2 1080.5 332.7 1081 332.2 1081.5C331.1 1082.6 330.4 1083.1 329.4 1083.5C329.1 1083.6 328.5 1083.9 328.2 1084.1C327.4 1084.8 324.3 1086.3 323.4 1086.5C323 1086.6 322.4 1086.9 322 1087.1C321.7 1087.3 321.3 1087.5 321.2 1087.5C321.1 1087.5 320.7 1087.7 320.3 1087.9C319.9 1088.1 319.1 1088.3 318.6 1088.4C318 1088.5 317.2 1088.8 316.9 1089C315.8 1089.5 311.8 1090.5 309.9 1090.6C309 1090.7 306.2 1090.7 303.8 1090.6ZM575.6 1062.8C573.2 1062.7 571.3 1062.4 569.2 1061.8C568.6 1061.7 567.1 1061.4 565.9 1061.2C564.7 1061 562.9 1060.5 561.8 1060.2C560.8 1059.8 559.7 1059.5 559.4 1059.4C559.2 1059.4 558.3 1059 557.6 1058.7C556.9 1058.3 555.7 1057.8 555 1057.6C554.3 1057.3 553.6 1057 553.5 1056.9C553.4 1056.8 552.5 1056.5 551.5 1056.2C550.5 1055.9 549.5 1055.6 549.2 1055.5C548.7 1055.3 548.7 1055.2 546.5 1053.6C545.7 1053 545 1052.5 544.9 1052.5C544.8 1052.5 544.4 1052.3 544 1052.1C543.6 1051.9 543 1051.6 542.7 1051.5C542.3 1051.4 541.9 1051.1 541.6 1050.9C541.3 1050.7 541.1 1050.5 541 1050.5C540.4 1050.5 534.8 1045.1 532.1 1042C530.5 1040.3 529.6 1039.5 528.8 1039.5C528 1039.5 526.1 1041.5 525.5 1042.8C525 1043.9 522.5 1046.4 520.3 1047.9C519.8 1048.2 519.1 1048.9 518.8 1049.3C518.5 1049.7 517.8 1050.3 517.2 1050.7C516 1051.4 513.4 1052.7 513.3 1052.7C513.2 1052.7 512.8 1052.9 512.4 1053.2C511.7 1053.6 509 1054.6 506.8 1055.3C506 1055.5 499.7 1055.5 456.5 1055.5L407.1 1055.5L405.2 1055C404.2 1054.7 403.2 1054.5 403 1054.5C402.9 1054.5 402.4 1054.3 401.9 1054.1C401.5 1053.9 401 1053.7 400.9 1053.7C400.8 1053.7 400.2 1053.4 399.6 1053.1C398.9 1052.8 398.3 1052.5 398.2 1052.5C398 1052.5 397.2 1052.2 396.4 1051.7C395.6 1051.3 394.4 1050.8 393.8 1050.6C392.8 1050.3 392.6 1050.1 390.8 1048.3C389.7 1047.3 388.3 1045.9 387.7 1045.3C387 1044.6 386.5 1044.1 386.5 1044C386.5 1043.8 385.1 1041.7 385 1041.7C384.9 1041.7 384.5 1041 384.2 1040.2C383.8 1039.4 383.3 1038.4 383.1 1037.9C382.8 1037.5 382.5 1036.6 382.3 1035.9C382 1035.3 381.6 1034.1 381.3 1033.3C381.1 1032.6 380.7 1031.4 380.6 1030.8C380.4 1030.2 380.2 1029.4 380.1 1029.1C379.9 1028.8 379.6 1027.8 379.3 1026.8C378.8 1025.2 378.8 1024.8 378.7 1020.4C378.6 1017.9 378.4 1007.2 378.3 996.8C378.2 982.3 378.1 977.2 377.9 975.6C377.8 974.4 377.6 970.2 377.5 966.2C377.4 959.6 377.2 954.6 376.9 944.2C376.8 941.1 376.8 940.7 377.2 939.3C377.6 937.4 378.1 936.7 379.7 935.4C380.3 934.8 381.3 934 381.8 933.5C382.4 932.9 382.9 932.5 382.9 932.5C383 932.5 383.7 931.9 384.5 931.3C385.3 930.6 386.3 929.9 386.7 929.6C387.1 929.4 387.5 929.1 387.7 929C387.8 928.9 388.3 928.5 388.7 928.2C389.1 927.8 389.7 927.3 390.1 927C390.5 926.6 390.9 926.3 391 926.3C391.1 926.3 391.6 926 392 925.7C393.1 924.8 393.6 924.6 394.3 924.4C395.2 924.3 396 924.6 396.3 925.2C396.7 926.1 396.8 933.3 396.8 967.6C396.9 1007.6 396.9 1010.2 398 1012.5C398.7 1014.2 399.4 1016 399.5 1017C399.7 1018.2 400.3 1019.8 401 1021C401.3 1021.4 401.5 1021.8 401.5 1021.9C401.5 1021.9 401.9 1022.5 402.3 1023C402.7 1023.6 403.2 1024.3 403.4 1024.5C404.3 1025.7 404.6 1026 405.5 1026.5C406 1026.8 406.7 1027.3 407.1 1027.6C407.4 1028 408 1028.4 408.3 1028.5C408.7 1028.6 409.6 1029.1 410.5 1029.5C412.7 1030.6 414.7 1031.1 417.5 1031.3C420.7 1031.6 500.8 1031.6 503 1031.4C503.9 1031.3 505.6 1030.9 506.8 1030.6C507.9 1030.3 509.4 1029.9 510 1029.7C510.6 1029.6 511.6 1029.2 512.2 1028.9C512.9 1028.6 513.8 1028.2 514.2 1028C514.6 1027.8 515.5 1027.2 516.2 1026.6C519.3 1024.1 520.5 1023.1 521.3 1022.2C523.9 1019.3 524.6 1018.5 525 1017.6C525.3 1017 525.6 1016.4 525.8 1016.1C525.9 1015.8 526.2 1015.2 526.4 1014.8C526.6 1014.4 526.9 1014 527 1013.9C527.2 1013.8 527.9 1012.7 528.8 1011.2C529.3 1010.4 529.8 1009.1 530.5 1007.3C530.6 1006.9 530.8 1006.4 531 1006.2C531.2 1006.1 531.7 1005.4 532.1 1004.7C532.6 1004 533.3 1003 533.7 1002.5C534 1002 534.4 1001.4 534.5 1001.2C534.6 1000.9 534.8 1000.6 535 1000.4C535.2 1000.2 535.6 999.5 535.9 998.8C536.5 997.7 536.9 997.1 538.2 995.8C539.2 994.8 540.2 993.7 540.6 993.3C541.3 992.5 543.7 990.5 544 990.5C544.2 990.5 545.6 989.4 546.7 988.4C549.1 986.2 552.4 984.8 559.1 983.1C561.5 982.5 565.1 982.4 566.8 982.9C567.3 983.1 568.3 983.4 569 983.5C574.3 984.8 576.3 985.5 578 986.6C579.5 987.5 581.5 989.1 582.5 990.1C582.7 990.3 582.9 990.5 583 990.5C583.1 990.5 583.4 990.8 583.8 991.2C584.1 991.6 584.6 992.1 584.9 992.4C585.1 992.6 585.4 993 585.5 993.2C585.9 994 588.5 997.7 590.1 999.6C590.3 999.9 590.7 1000.6 591.1 1001.2C591.4 1001.8 591.8 1002.4 592 1002.6C592.3 1002.9 593.5 1005.2 593.5 1005.4C593.5 1005.5 593.6 1005.8 593.8 1006.2C594.5 1007.8 595.3 1010 595.4 1010.5C595.6 1011.3 596.7 1014 597 1014.4C597.4 1014.9 598.5 1016.8 598.5 1017.1C598.5 1017.3 599.5 1018.9 600.4 1020.2C600.7 1020.6 601.1 1021.2 601.4 1021.5C601.7 1022.1 602.4 1022.8 603.7 1023.9C604 1024.2 604.8 1024.8 605.5 1025.3C606.2 1025.7 606.9 1026.2 607.2 1026.4C609.5 1028.1 611 1028.9 612.6 1029.3C613 1029.4 614.1 1029.7 615 1030C615.9 1030.2 617.1 1030.6 617.8 1030.8L619.1 1031.1L658.7 1031.1C680.4 1031.1 701.1 1031.2 704.6 1031.2C710.1 1031.2 711.1 1031.2 712.1 1030.9C713.6 1030.5 714.2 1030.2 714.4 1029.6C714.7 1028.8 714.5 1027 714 1026.4C713.4 1025.5 710.8 1022.9 707.9 1020C706.3 1018.4 704.1 1016.1 703.1 1014.9C701.2 1012.6 699.7 1010.9 699.4 1010.6C698.5 1009.9 698.1 1009.7 697.2 1009.3C696.7 1009 695.8 1008.7 695.3 1008.6C692.9 1008 692.4 1007 693.2 1004.2C693.5 1003.1 693.7 1002.4 694.8 1000.3C694.9 1000.1 695.1 999.3 695.3 998.5C695.5 997.7 695.8 996.9 696 996.6C696.2 996.3 696.4 995.9 696.4 995.7C696.5 995.4 696.7 994.9 696.9 994.4C697.1 993.9 697.4 993 697.5 992.4C697.7 991 698.4 988.6 698.7 988.1C699.4 987 700.5 986.2 701.6 985.8C702.2 985.6 703.2 985.3 703.8 985.1C704.3 984.9 705.3 984.6 706 984.5C707.7 984.2 708.9 983.8 711.1 982.8C712.9 981.9 713.8 981.6 715.4 981.4C717.3 981.2 719.2 980.8 720.9 980.2C722.1 979.9 723.5 979.6 725 979.4C726.2 979.3 727.7 979.1 728.3 978.9C729.4 978.6 736.2 978.2 739 978.2C742.5 978.2 747.5 978.7 749.1 979.1C749.4 979.2 750.4 979.4 751.3 979.5C752.2 979.6 753.4 979.9 754 980.1C755.7 980.7 757.4 981.1 760.8 981.6C761.5 981.8 762.7 982.2 764.4 983.1C765.8 983.7 767.3 984.4 767.6 984.4C768 984.5 768.7 984.8 769.2 985C769.7 985.3 770.8 985.8 771.7 986.1C772.5 986.4 773.4 986.8 773.6 987C773.8 987.2 774.3 987.5 774.7 987.7C775.1 987.8 775.8 988.3 776.1 988.7C776.5 989.2 776.9 989.5 777 989.5C777.7 989.5 780.1 991.5 780.6 992.5C781.4 994.1 780.9 999.5 779.5 1003.3C779.1 1004.5 778.6 1005.9 778.5 1006.4C778.3 1007 777.8 1007.8 777.4 1008.3C777 1008.8 776.6 1009.4 776.6 1009.6C776.3 1010.6 774.6 1013.6 773.8 1014.4C772.5 1015.8 771.9 1016.4 771.7 1016.8C771.4 1017.3 770.1 1018.5 769.9 1018.5C769.9 1018.5 769.6 1018.7 769.3 1019C769.1 1019.2 768.5 1019.7 768.1 1020C767.1 1020.7 766.7 1021.1 765.6 1022.4C765.1 1023 764.3 1023.7 763.7 1024C762.5 1024.7 760.7 1026.4 760.3 1027.2C760.2 1027.5 760 1028.1 759.9 1028.4C759.8 1029.1 759.9 1029.2 760.4 1029.6C760.7 1029.9 761.2 1030.2 761.5 1030.2C761.8 1030.3 764.6 1030.4 767.7 1030.4C770.7 1030.5 774 1030.6 774.8 1030.7C775.9 1030.8 784.6 1030.9 799.5 1030.9C812.2 1030.9 822.7 1031 822.8 1031.1C822.9 1031.1 823.5 1031.1 824.1 1030.9C824.7 1030.8 826 1030.6 826.8 1030.5C827.7 1030.4 828.9 1030.1 829.5 1029.9C830.2 1029.7 830.9 1029.5 831 1029.5C831.3 1029.5 833 1029 833.8 1028.6C834.5 1028.3 836 1027.4 837.2 1026.6C837.6 1026.3 838.3 1025.8 838.7 1025.5C839.6 1024.9 841.7 1022.7 842.4 1021.6C842.7 1021.1 843.1 1020.6 843.3 1020.3C843.4 1020.1 843.8 1019.5 844.1 1019C844.5 1018.5 844.9 1017.9 845 1017.6C845.2 1017.3 845.7 1016.4 846.2 1015.5C846.7 1014.6 847.2 1013.6 847.5 1013.1C847.7 1012.7 848.1 1012 848.3 1011.6C848.5 1011.2 848.8 1010.8 849 1010.6C849.2 1010.4 849.4 1009.8 849.6 1009.4C849.7 1008.9 849.9 1008.4 850 1008.3C850.1 1008.1 850.5 1007.4 850.9 1006.6C851.4 1005.8 851.9 1004.9 852.1 1004.6C852.3 1004.4 852.5 1004.1 852.5 1004C852.5 1003.8 854.6 1001.2 855.2 1000.6C855.4 1000.4 855.5 1000.2 855.5 1000.1C855.5 1000 855.7 999.7 855.8 999.6C856 999.4 856.3 999 856.4 998.8C856.6 998.5 857.3 997.5 858.1 996.6C858.9 995.7 859.8 994.7 860.2 994.3C860.5 993.8 860.8 993.5 860.9 993.5C860.9 993.5 861.7 992.8 862.5 992C863.3 991.2 864.5 990.3 865.2 989.8C865.8 989.4 866.4 989 866.5 988.9C866.5 988.8 866.8 988.6 867 988.5C867.2 988.4 867.5 988.2 867.6 988.1C868.6 987.2 871.1 985.9 872.8 985.3C873.5 985.1 874.3 984.8 874.6 984.7C874.9 984.6 876 984.2 877.2 983.9C878.3 983.6 879.6 983.2 880 983C882.4 981.9 889.2 981.9 891.7 983.1C892.2 983.3 892.7 983.5 892.8 983.5C893.4 983.5 896.7 984.6 897.8 985.1C898.4 985.4 899.5 985.9 900.2 986.2C900.9 986.6 901.5 986.9 901.5 987C901.5 987.1 903.7 988.5 904 988.5C904 988.5 904.2 988.7 904.4 988.8C904.6 989 905.3 989.5 906 990C906.8 990.5 907.3 990.9 907.3 991C907.3 991.1 907.4 991.2 907.6 991.4C910.3 994.1 911.7 995.9 912.6 997.5C913.4 998.9 913.6 999.3 913.9 999.7C914.4 1000.6 915.2 1002.1 915.5 1002.9C915.9 1004 916.9 1006.3 917.1 1006.5C917.2 1006.7 917.4 1007 917.5 1007.4C917.6 1007.7 917.9 1008.1 918.1 1008.3C918.3 1008.6 918.5 1008.8 918.5 1009C918.5 1009.2 918.7 1009.7 918.9 1010.3C919.7 1012.3 920.5 1019.9 920.5 1026.5C920.6 1031.4 920.4 1033.8 919.6 1040.2C919.4 1041.7 919.3 1042.1 918.6 1043.3C918.2 1044.1 917.6 1045.4 917.4 1046.1C916.6 1048.2 916.3 1049 915.3 1050.7C914.9 1051.6 914.5 1052.5 914.5 1052.6C914.5 1053.5 912.3 1056.1 909.8 1058.2C908.6 1059.1 908.2 1059.4 907 1059.7C904.8 1060.4 903.7 1060.5 899.4 1060.5C892.5 1060.5 889.7 1060.2 886.8 1059.1C886.3 1058.9 885.4 1058.7 884.8 1058.5C883.2 1058.1 881 1057.3 880.5 1057.1C880.3 1057 878.9 1056.6 877.4 1056.2C875 1055.6 873.8 1055.1 872.2 1054.4C871.9 1054.2 871.7 1054 871.7 1054C871.7 1053.9 871.4 1053.7 871 1053.5C870.7 1053.3 870.3 1053.1 870.3 1053C870.2 1052.9 868.7 1051.9 867.6 1051.4C866.5 1050.9 864 1049.4 863.3 1048.8C863 1048.5 862.4 1048 862 1047.6C861.6 1047.3 860.6 1046.6 859.8 1046.1C859 1045.6 857.8 1044.7 857 1043.8C854.1 1041 852.3 1039.7 851.1 1039.7C849.8 1039.7 848.1 1041 846.9 1043C846 1044.6 844.1 1046.8 842.2 1048.5C841.9 1048.9 841.5 1049.2 841.4 1049.3C840.9 1049.9 839.9 1050.6 838.5 1051.2C837.6 1051.7 836.8 1052.1 836.7 1052.3C836.6 1052.4 836.4 1052.5 836.2 1052.5C836.1 1052.5 835.8 1052.7 835.6 1052.9C834.5 1053.7 831.6 1055 829.8 1055.4C829 1055.5 820.5 1055.6 793 1055.5C773.3 1055.5 756.8 1055.5 756.2 1055.4C755.6 1055.4 754.6 1055.2 754 1055C751.1 1054 749 1053.3 748.6 1053C748.4 1052.8 748.1 1052.7 748.1 1052.7C748 1052.7 747.5 1052.4 747 1052.2C746.4 1051.9 745.5 1051.6 744.9 1051.5C744.1 1051.3 743.6 1051.1 742.8 1050.6C742.2 1050.2 741.5 1049.7 741.2 1049.5C740.8 1049.4 740.5 1049.2 740.3 1049C739.7 1048.5 738.6 1047.7 737.9 1047.2C737.1 1046.8 737 1046.8 735.5 1046.8C733.6 1046.8 732.6 1047.1 730.4 1048.6C729.6 1049.1 728.9 1049.5 728.8 1049.5C728.7 1049.5 728.3 1049.7 727.9 1050C727.6 1050.3 727.1 1050.5 727 1050.5C726.8 1050.5 726.1 1050.7 725.4 1050.9C724.7 1051.1 723.4 1051.4 722.5 1051.6C721.6 1051.7 720.6 1052 720.1 1052.2C719.7 1052.4 719.1 1052.5 719 1052.5C718.8 1052.5 718.3 1052.7 718 1052.9C717.2 1053.2 715.6 1053.7 712.6 1054.4C711.7 1054.7 710.5 1055 709.9 1055.1C708.2 1055.6 701 1055.6 657.4 1055.6L615.4 1055.6L613.6 1055.2C611.6 1054.8 610.3 1054.4 609.8 1054.1C609.6 1054 609 1053.7 608.5 1053.6C608 1053.4 607.6 1053.2 607.5 1053C607.4 1052.8 605.8 1052 604.4 1051.5C602.5 1050.8 601.7 1050.3 600.3 1049C597.7 1046.5 597.3 1046.2 595.8 1046.2C594.5 1046.2 594 1046.7 593.4 1048.4C593.3 1048.9 593 1049.4 592.9 1049.5C592.6 1049.9 591.5 1051.8 591.5 1052C591.5 1052 591.3 1052.4 591.1 1052.7C590.8 1053 590.5 1053.5 590.3 1053.9C589.9 1054.9 589.5 1055.5 587.8 1057.6C587.4 1058 585.7 1059.7 584.4 1061C582.7 1062.6 580.4 1063.1 575.6 1062.8ZM577.4 1038.7C580.6 1038.4 582 1037.3 582 1035.1C582 1034.1 581.6 1031.5 581.1 1029.1C580.9 1028.1 580.6 1026.8 580.5 1026.3C580.1 1024.2 579.3 1022.1 577.8 1019C576.4 1016.3 576.1 1015.7 576 1015.7C575.9 1015.6 575.4 1014.8 574.5 1013C574.1 1012.2 571.2 1009.1 570.5 1008.6C569.9 1008.3 569 1007.6 568.3 1006.9C568.1 1006.7 567.5 1006.3 566.9 1006C566.4 1005.7 565.6 1005.3 565.3 1005C563.8 1004 560.1 1003.6 557.8 1004.3C556.5 1004.7 553.6 1006 551.2 1007.3C550.4 1007.8 547.3 1010.6 546.5 1011.6C546.1 1012 545.3 1012.9 544.7 1013.5C544.1 1014.1 543.5 1014.8 543.4 1015C543.2 1015.3 542.7 1016 542.3 1016.6C540.8 1018.8 540.8 1019 540.7 1020.4C540.6 1021.7 540.7 1021.9 541.1 1022.6C541.6 1023.6 542.5 1024.6 544 1025.8C546 1027.4 546.2 1027.6 546.6 1028C546.9 1028.2 547.5 1028.7 548 1029C548.6 1029.3 549.8 1030.1 550.7 1030.8C551.6 1031.5 552.8 1032.2 553.3 1032.4C553.8 1032.7 554.4 1032.9 554.5 1033.1C554.6 1033.2 555.7 1033.6 556.9 1034C558.1 1034.4 559.5 1034.9 560 1035.1C560.5 1035.3 561.1 1035.5 561.4 1035.6C561.7 1035.6 562.1 1035.8 562.3 1036C563.1 1036.4 565.2 1037.3 566.1 1037.5C566.5 1037.6 567.4 1037.8 568 1038C568.7 1038.2 570.2 1038.4 572 1038.6C575.7 1038.9 575.5 1038.8 577.4 1038.7ZM900.2 1036.8C900.8 1036.5 901.5 1036 901.8 1035.7C903.1 1034.1 903.6 1031.6 903.1 1029.4C902.9 1028.8 902.7 1027.5 902.5 1026.5C901.8 1022.6 901.5 1020.9 901.3 1020.3C901 1019.1 899.6 1016.4 898.9 1015.7C898.7 1015.4 898.5 1015.2 898.5 1015.1C898.5 1014.9 897.4 1013.2 896.9 1012.6C896.8 1012.4 896.6 1012.1 896.5 1011.9C896.2 1011.4 895.1 1010 894.7 1009.5C894.5 1009.3 894.3 1009.1 894.3 1009C894.3 1008.8 892.6 1007.6 891.2 1006.9C890.4 1006.5 889.6 1006 889.5 1005.9C889 1005.5 887.5 1004.8 886.5 1004.6C886 1004.5 885.1 1004.2 884.6 1004.1C882.5 1003.5 879 1003.9 877 1004.9C876.6 1005.1 875.9 1005.4 875.6 1005.5C875.2 1005.6 874.8 1005.8 874.7 1005.9C874.5 1006 874 1006.3 873.5 1006.6C873 1006.8 872.5 1007.1 872.4 1007.2C872.3 1007.3 871.9 1007.6 871.4 1007.9C871 1008.2 870.1 1008.8 869.6 1009.3C869.1 1009.8 868.5 1010.3 868.2 1010.4C868 1010.6 867.4 1011.3 866.9 1012C865.9 1013.3 865.4 1013.8 864.8 1014.3C864.5 1014.4 864.2 1014.8 863.9 1015.2C863.7 1015.6 863.3 1016.1 863.2 1016.3C862.6 1017.2 861.8 1019.6 861.8 1020.4C861.8 1021.6 862.6 1022.9 864.3 1024.3C866.4 1026.1 866.7 1026.3 867.3 1026.5C867.6 1026.6 868.3 1026.9 868.8 1027.3C870.5 1028.5 871.6 1029.2 872.4 1029.6C872.9 1029.8 873.6 1030.2 874 1030.5C874.7 1030.9 876 1031.6 879.1 1033.1C879.5 1033.3 881 1033.7 882.4 1034C883.8 1034.3 885.4 1034.7 885.9 1034.9C887.4 1035.5 890.9 1036.5 891.3 1036.5C891.5 1036.5 892.4 1036.6 893.2 1036.8C897.1 1037.6 898.7 1037.6 900.2 1036.8ZM739.2 1024.4C740.9 1023.6 742.7 1022.5 743.5 1021.9C744.3 1021.2 744.8 1020.9 745.3 1020.7C745.9 1020.4 749.2 1017.8 749.8 1017C750 1016.8 751 1015.8 752 1014.9C753 1014 754.1 1012.9 754.4 1012.5C754.9 1011.8 755.2 1011.4 755.8 1010.8C755.9 1010.7 756.3 1010.3 756.6 1010C756.9 1009.7 757.4 1008.9 757.8 1008.2C758.2 1007.3 758.3 1007 758.2 1006.5C758 1005.7 757.5 1004.9 756.8 1004.4C755.2 1003.3 751.7 1001.7 750.7 1001.7C750.6 1001.7 749.7 1001.4 748.8 1001.1C746 1000.2 744.1 999.7 742.9 999.5C742.3 999.4 741.2 999.2 740.4 999.1C738.1 998.7 729.3 998.7 727.5 999.2C726.7 999.3 725.4 999.6 724.5 999.8C723.6 1000 722.2 1000.5 721.2 1000.8C720.3 1001.1 719 1001.4 718.3 1001.5C715.9 1001.9 714.7 1002.9 715.2 1004.5C715.6 1005.9 716 1006.5 718.1 1008.7C719.3 1009.8 720.4 1011.1 720.7 1011.5C721.1 1012.3 724.2 1015.3 724.9 1015.8C725.5 1016.2 726.3 1017 727.8 1018.8C729.3 1020.6 732.8 1023.9 734.1 1024.8C735.6 1025.8 736.6 1025.7 739.2 1024.4Z"/></svg>